<?xml version="1.0" encoding="UTF-8" standalone="no"?>
<svg width="300px" height="300px" viewBox="0 0 300 300" version="1.1" xmlns="http://www.w3.org/2000/svg" xmlns:xlink="http://www.w3.org/1999/xlink" xmlns:sketch="http://www.bohemiancoding.com/sketch/ns">
    <title>icon-target-white</title>
    <description>Created with Sketch (http://www.bohemiancoding.com/sketch)</description>
    <defs></defs>
    <g id="Page-1" stroke="none" stroke-width="1" fill="none" fill-rule="evenodd" sketch:type="MSPage">
        <g id="Target-copy" sketch:type="MSLayerGroup" transform="translate(17.000000, 2.000000)">
            <path d="M120,31.69 C186.27417,31.69 240,85.41583 240,151.69 C240,217.96417 186.27417,271.69 120,271.69 C53.72583,271.69 0,217.96417 0,151.69 C0.00276120352,85.4169738 53.7269738,31.6927612 120,31.69 L120,31.69 Z M119,51.69 C173.67619,51.69 218,96.0138098 218,150.69 C218,205.36619 173.67619,249.69 119,249.69 C64.3238098,249.69 20,205.36619 20,150.69 C20,96.0138098 64.3238098,51.69 119,51.69 L119,51.69 Z" id="circle-3" fill="#AFAFAF" sketch:type="MSShapeGroup"></path>
            <path d="M120,77.69 C160.869071,77.69 194,110.820929 194,151.69 C194,192.559071 160.869071,225.69 120,225.69 C79.1309285,225.69 46,192.559071 46,151.69 C46,110.820929 79.1309285,77.69 120,77.69 Z M120,99.69 C148.718807,99.69 172,122.971193 172,151.69 C172,180.408807 148.718807,203.69 120,203.69 C91.281193,203.69 68,180.408807 68,151.69 C68,122.971193 91.281193,99.69 120,99.69 Z" id="circle-2" fill="#D9D9D9" sketch:type="MSShapeGroup"></path>
            <circle id="circle-1" fill="#AFAFAF" sketch:type="MSShapeGroup" cx="121" cy="152" r="26"></circle>
            <path d="M113.6,139.64 L235,26.69 L252,44.69 L130.374,157.66 C125.645,162.07 118.055,161.61 113.421,156.64 C108.787,151.67 108.865,144.06 113.6,139.64 L113.6,139.64 Z" id="arrow_bg" fill="#FFFFFF" sketch:type="MSShapeGroup"></path>
            <path d="M228.799667,59.0843461 L126.926,154.06 C124.070222,156.46465 119.830794,156.208792 117.284943,153.478142 C114.739091,150.747491 114.780451,146.500551 117.379,143.82 L117.379,143.82 L218.298024,49.7321326 L218.298024,49.7321326 L221.95,28.56 L252.58,0 L249.100411,29.7554564 L249.255577,29.9218336 L279.18,28.53 L248.54,57.09 L228.799667,59.0843461 Z" id="arrow_fg" fill="#63CAF0" sketch:type="MSShapeGroup"></path>
        </g>
    </g>
</svg>