<?xml version="1.0" encoding="utf-8"?>
<!-- Generator: Adobe Illustrator 16.0.0, SVG Export Plug-In . SVG Version: 6.00 Build 0)  -->
<!DOCTYPE svg PUBLIC "-//W3C//DTD SVG 1.1//EN" "http://www.w3.org/Graphics/SVG/1.1/DTD/svg11.dtd">
<svg version="1.1" id="Layer_1" xmlns="http://www.w3.org/2000/svg" xmlns:xlink="http://www.w3.org/1999/xlink" x="0px" y="0px"
	 width="386px" height="296px" viewBox="206.5 149.5 386 296" enable-background="new 206.5 149.5 386 296" xml:space="preserve">
<g>
	<g>
		<defs>
			<polygon id="SVGID_1_" points="286.824,337.729 230.235,281.139 249.098,205.687 343.413,167.961 437.729,167.961 
				513.181,205.687 569.77,281.139 569.77,318.865 532.043,337.729 550.906,356.591 494.317,394.317 475.454,394.317 
				475.454,432.043 456.591,432.043 437.729,375.454 418.865,356.591 362.276,356.591 343.413,337.729 			"/>
		</defs>
		<clipPath id="SVGID_2_">
			<use xlink:href="#SVGID_1_"  overflow="visible"/>
		</clipPath>
		<g clip-path="url(#SVGID_2_)">
			<g>
				<path fill="#C9E9EC" d="M618.847,99.836C570.872,9.033,465.276-40.346,361.614-13.275
					C300.762,2.616,252.208,41.826,222.983,92.253l188.291,197.094L618.847,99.836z"/>
				<path fill="#44A4B2" d="M295.174,395.345l116.1-105.994L222.983,92.257c-28.869,49.815-38.879,110.575-23.181,170.682
					C214.612,319.641,249.659,365.684,295.174,395.345z"/>
				<path fill="#EB2C3F" d="M523.236,406.545c91.746-47.606,141.809-153.784,114.587-258.009
					c-4.515-17.291-10.97-33.551-18.972-48.7L411.273,289.351L523.236,406.545z"/>
				<path fill="#762536" d="M295.174,395.345c51.572,33.605,116.586,46.181,180.838,29.4c16.733-4.372,32.495-10.559,47.225-18.2
					L411.273,289.351L295.174,395.345z"/>
			</g>
		</g>
	</g>
</g>
</svg>
