<?xml version="1.0" encoding="UTF-8" standalone="no"?>
<svg
   xmlns:dc="http://purl.org/dc/elements/1.1/"
   xmlns:cc="http://creativecommons.org/ns#"
   xmlns:rdf="http://www.w3.org/1999/02/22-rdf-syntax-ns#"
   xmlns:svg="http://www.w3.org/2000/svg"
   xmlns="http://www.w3.org/2000/svg"
   xmlns:sodipodi="http://sodipodi.sourceforge.net/DTD/sodipodi-0.dtd"
   xmlns:inkscape="http://www.inkscape.org/namespaces/inkscape"
   version="1.1"
   width="153.16513"
   height="120.5414"
   xml:space="preserve"
   id="vectorTools"
   inkscape:version="0.91 r13725"
   sodipodi:docname="svg.svg"><metadata
     id="metadata19"><rdf:RDF><cc:Work
         rdf:about=""><dc:format>image/svg+xml</dc:format><dc:type
           rdf:resource="http://purl.org/dc/dcmitype/StillImage" /><dc:title></dc:title></cc:Work></rdf:RDF></metadata><defs
     id="defs17" /><sodipodi:namedview
     pagecolor="#ffffff"
     bordercolor="#666666"
     borderopacity="1"
     objecttolerance="10"
     gridtolerance="10"
     guidetolerance="10"
     inkscape:pageopacity="0"
     inkscape:pageshadow="2"
     inkscape:window-width="1366"
     inkscape:window-height="744"
     id="namedview15"
     showgrid="false"
     inkscape:zoom="5.0356144"
     inkscape:cx="76.582565"
     inkscape:cy="60.270699"
     inkscape:window-x="0"
     inkscape:window-y="24"
     inkscape:window-maximized="1"
     inkscape:current-layer="penGroup"
     fit-margin-top="3"
     fit-margin-left="3"
     fit-margin-right="3"
     fit-margin-bottom="3" /><g
     id="penGroup"
     transform="translate(-97.632843,-57.958595)"><path
       id="oval14"
       stroke-miterlimit="10"
       d="m 168.55431,68.776048 c 35.09,-0.15 59.99174,-0.08654 72.57115,21.818408 12.56342,21.877124 0.48771,56.621464 -17.70854,73.582874"
       style="fill:none;stroke:#484848;stroke-width:5;stroke-miterlimit:7;stroke-dasharray:none"
       inkscape:connector-curvature="0"
       sodipodi:nodetypes="cac" /><circle
       id="oval15"
       style="fill:#ffffff;stroke:#484848;stroke-width:5;stroke-miterlimit:7;stroke-dasharray:none"
       transform="scale(1,-1)"
       r="5.5"
       cy="-165.2861"
       cx="222.20699" /><path
       id="bezier5"
       stroke-miterlimit="10"
       d="m 170,69 0,55"
       style="fill:none;stroke:#0074fc;stroke-width:5;stroke-miterlimit:7;stroke-dasharray:none"
       inkscape:connector-curvature="0" /><path
       id="bezier3"
       stroke-miterlimit="10"
       d="m 175.42994,68.74572 50.67197,0"
       style="fill:none;stroke:#0074fc;stroke-width:5;stroke-miterlimit:7;stroke-dasharray:none"
       inkscape:connector-curvature="0" /><path
       id="bezier4"
       stroke-miterlimit="10"
       d="m 168,73.5 -1,0 c 0,0 -3.78,15.21 -9,26 -5.22,10.79 -13,22 -13,22 0,0 4.19,12.81 7,24 2.81,11.19 3,28.5 3,28.5 l 30,0 c 0,0 0.19,-17.31 3,-28.5 2.81,-11.19 7,-24 7,-24 0,0 -7.78,-11.21 -13,-22 -5.22,-10.79 -9,-26 -9,-26 l -1,0 -4,0 z m 0,0"
       style="fill:none;stroke:#0074fc;stroke-width:5;stroke-miterlimit:7;stroke-dasharray:none"
       inkscape:connector-curvature="0" /><circle
       id="oval17"
       cx="230.93312"
       cy="67.958595"
       r="5.5"
       style="fill:#ffffff;stroke:#0074fc;stroke-width:5;stroke-miterlimit:7;stroke-dasharray:none" /><circle
       id="oval12"
       cx="170"
       cy="70"
       r="6"
       style="fill:#ffffff;stroke:#0074fc;stroke-width:5;stroke-miterlimit:7;stroke-dasharray:none" /><circle
       id="oval11"
       cx="170"
       cy="129"
       r="5"
       style="fill:#ffffff;stroke:#0074fc;stroke-width:5;stroke-miterlimit:7;stroke-dasharray:none" /><path
       id="bezier3-7"
       stroke-miterlimit="10"
       d="m 163.13601,69.285531 -50.67197,0"
       style="fill:none;stroke:#0074fc;stroke-width:5;stroke-miterlimit:7;stroke-dasharray:none"
       inkscape:connector-curvature="0" /><circle
       id="oval17-5"
       cx="-107.63284"
       cy="68.498405"
       r="5.5"
       style="fill:#ffffff;stroke:#0074fc;stroke-width:5;stroke-miterlimit:7;stroke-dasharray:none"
       transform="scale(-1,1)" /><path
       id="oval14-3"
       stroke-miterlimit="10"
       d="m 163.59952,69.420056 c -30.48208,0.463812 -38.75244,6.015959 -51.6142,20.687908"
       style="fill:none;stroke:#484848;stroke-width:5;stroke-miterlimit:7;stroke-dasharray:none"
       inkscape:connector-curvature="0"
       sodipodi:nodetypes="cc" /><circle
       id="oval15-5"
       style="fill:#ffffff;stroke:#484848;stroke-width:5;stroke-miterlimit:7;stroke-dasharray:none"
       transform="scale(-1,-1)"
       cy="-93.923729"
       cx="-108.18728"
       r="5.5" /></g></svg>