<?xml version="1.0" encoding="UTF-8" standalone="no"?>
<svg width="143px" height="155px" viewBox="0 0 143 155" version="1.1" xmlns="http://www.w3.org/2000/svg" xmlns:xlink="http://www.w3.org/1999/xlink" xmlns:sketch="http://www.bohemiancoding.com/sketch/ns">
    <!-- Generator: Sketch 3.4.4 (17249) - http://www.bohemiancoding.com/sketch -->
    <title>Stroke 1 + DISEÑO DE + Page 1</title>
    <desc>Created with Sketch.</desc>
    <defs>
        <path id="path-1" d="M0,0.196107143 L88.7901901,0.196107143 L88.7901901,95 L0,95 L0,0.196107143 Z"></path>
    </defs>
    <g id="Welcome" stroke="none" stroke-width="1" fill="none" fill-rule="evenodd" sketch:type="MSPage">
        <g id="Desktop-HD" sketch:type="MSArtboardGroup" transform="translate(-830.000000, -2116.000000)">
            <g id="Group" sketch:type="MSLayerGroup" transform="translate(-24.000000, 1744.000000)">
                <g id="Stroke-1-+-DISEÑO-DE-+-Page-1" transform="translate(857.000000, 375.000000)">
                    <path d="M123.023968,27.0554886 C131.67218,32.0312202 137,41.2250548 137,51.1748547 L137,97.8243136 C137,107.774945 131.67218,116.96878 123.023968,121.94368 L82.476449,145.268825 C73.8282369,150.243725 63.1725978,150.243725 54.523551,145.268825 L13.9768663,121.94368 C5.32781951,116.96878 0,107.774945 0,97.8243136 L0,51.1748547 C0,41.2250548 5.32781951,32.0312202 13.9768663,27.0554886 L54.523551,3.73117496 C63.1725978,-1.24372499 73.8282369,-1.24372499 82.476449,3.73117496 L123.023968,27.0554886 Z" id="Stroke-1" stroke="#0B2E3C" stroke-width="5.99712021" fill="#FFFFFF" sketch:type="MSShapeGroup"></path>
                    <g id="Page-1" transform="translate(24.000000, 33.000000)">
                        <path id="Fill-1" fill="#F05A28" sketch:type="MSShapeGroup" d="M37.1679228,61.4336161 L42.8862574,61.4336161 L37.1679228,61.4336161 Z"></path>
                        <g id="Group-15">
                            <path d="M43.672943,9.67683571 L26.4421369,49.695925 C26.4421369,49.695925 38.04327,47.3012464 37.7021597,65.4323357 L43.5020494,65.4323357 L43.8438365,65.4323357 L49.6437262,65.4323357 C49.302616,47.3012464 60.903749,49.695925 60.903749,49.695925 L43.672943,9.67683571 Z" id="Fill-2" fill="#63BCBA" sketch:type="MSShapeGroup"></path>
                            <mask id="mask-2" sketch:name="Clip 5" fill="white">
                                <use xlink:href="#path-1"></use>
                            </mask>
                            <g id="Clip-5"></g>
                            <path d="M37.3160418,95 L43.672943,95 L43.672943,80.0626071 L37.3160418,80.0626071 L37.3160418,95 Z" id="Fill-4" fill="#27A9E1" sketch:type="MSShapeGroup" mask="url(#mask-2)"></path>
                            <path d="M50.0298441,80.0626071 L43.672943,80.0626071 L43.672943,95 L50.0298441,95 L50.0298441,80.0626071 Z" id="Fill-6" fill="#2094BC" sketch:type="MSShapeGroup" mask="url(#mask-2)"></path>
                            <path d="M52.8856274,82.1539643 L34.460597,82.1539643 L34.460597,65.4326071 L52.8856274,65.4326071 L52.8856274,82.1539643 Z" id="Fill-7" fill="#404041" sketch:type="MSShapeGroup" mask="url(#mask-2)"></path>
                            <path id="Stroke-8" stroke="#221F20" stroke-width="2.816" sketch:type="MSShapeGroup" mask="url(#mask-2)" d="M4.92386578,40.8504071 C4.92386578,40.3679429 4.93131065,39.8905679 4.94586198,39.4172643"></path>
                            <path d="M5.12281293,36.5976304 C9.44523498,-8.67936964 82.7937559,-8.2101375 85.6847331,38.0060054" id="Stroke-9" stroke="#221F20" stroke-width="2.816" stroke-dasharray="8.327,8.327" sketch:type="MSShapeGroup" mask="url(#mask-2)">
                                <g transform="translate(45.403773, 20.497141) rotate(5.000000) translate(-45.403773, -20.497141) "></g>
                            </path>
                            <path id="Stroke-10" stroke="#221F20" stroke-width="2.816" sketch:type="MSShapeGroup" mask="url(#mask-2)" d="M85.7504848,39.4173321 C85.7650361,39.8902964 85.772481,40.3680107 85.772481,40.850475"></path>
                            <path d="M6.43304183,47.1361607 L0.476471483,47.1361607 L0.476471483,41.1640536 L6.43304183,41.1640536 L6.43304183,47.1361607 Z" id="Stroke-11" stroke="#221F20" stroke-width="1.81599998" sketch:type="MSShapeGroup" mask="url(#mask-2)"></path>
                            <path d="M88.3137186,47.1361607 L82.3571483,47.1361607 L82.3571483,41.1640536 L88.3137186,41.1640536 L88.3137186,47.1361607 Z" id="Stroke-12" stroke="#221F20" stroke-width="1.81599998" sketch:type="MSShapeGroup" mask="url(#mask-2)"></path>
                            <path d="M85.7724471,1.72750714 C84.9453901,1.72750714 84.237451,2.21811429 83.9078464,2.92179286 L47.7359452,2.92179286 L47.7359452,0.195971429 L40.6172989,0.195971429 L40.6172989,2.92179286 L5.0112076,2.92179286 C4.68160304,2.21811429 3.97366388,1.72750714 3.14660684,1.72750714 C2.006527,1.72750714 1.08167148,2.65443571 1.08167148,3.79782857 C1.08167148,4.94122143 2.006527,5.86815 3.14660684,5.86815 C3.97366388,5.86815 4.68160304,5.37754286 5.0112076,4.673525 L40.6172989,4.673525 L40.6172989,7.33318571 L47.7359452,7.33318571 L47.7359452,4.673525 L83.9078464,4.673525 C84.237451,5.37754286 84.9453901,5.86815 85.7724471,5.86815 C86.9128654,5.86815 87.8373825,4.94122143 87.8373825,3.79782857 C87.8373825,2.65443571 86.9128654,1.72750714 85.7724471,1.72750714" id="Fill-13" fill="#221F20" sketch:type="MSShapeGroup" mask="url(#mask-2)"></path>
                            <path d="M44.4595947,35.3394571 L44.4595947,9.67690357 L42.8863589,9.67690357 L42.8863589,35.3394571 C42.4318837,35.6102071 42.1242753,36.1018321 42.1242753,36.6701357 C42.1242753,37.5275107 42.8176631,38.2227071 43.6728076,38.2227071 C44.5282905,38.2227071 45.2216783,37.5275107 45.2216783,36.6701357 C45.2216783,36.1018321 44.91407,35.6102071 44.4595947,35.3394571" id="Fill-14" fill="#221F20" sketch:type="MSShapeGroup" mask="url(#mask-2)"></path>
                        </g>
                    </g>
                </g>
            </g>
        </g>
    </g>
</svg>