<!-- Generator: Adobe Illustrator 19.0.0, SVG Export Plug-In  -->
<svg version="1.1"
	 xmlns="http://www.w3.org/2000/svg" xmlns:xlink="http://www.w3.org/1999/xlink" xmlns:a="http://ns.adobe.com/AdobeSVGViewerExtensions/3.0/"
	 x="0px" y="0px" width="185.2px" height="162.1px" viewBox="0 0 185.2 162.1" enable-background="new 0 0 185.2 162.1"
	 xml:space="preserve">
<defs>
</defs>
<circle fill="#FFD680" cx="81.1" cy="81.1" r="81.1"/>
<g>
	<g>
		<polygon fill="#F2F2F2" points="182,54.6 185.2,46.8 178.2,51.5 		"/>
		<polygon fill="#CCCBCA" points="185.2,46.8 182,54.6 180.8,53.7 		"/>
		
			<rect x="158.2" y="46.2" transform="matrix(-0.7779 -0.6283 0.6283 -0.7779 237.1918 238.1192)" fill="#F68360" width="4.9" height="61.8"/>
		
			<rect x="161.2" y="47.3" transform="matrix(-0.7779 -0.6283 0.6283 -0.7779 238.8631 240.8349)" fill="#ED6D47" width="1.6" height="61.8"/>
		<polygon fill="#353F49" points="184,49.9 185.2,46.8 182.4,48.6 		"/>
		<polygon fill="#232E38" points="184,49.9 185.2,46.8 183.5,49.5 		"/>
		
			<rect x="137.9" y="100.9" transform="matrix(-0.7779 -0.6283 0.6283 -0.7779 185.237 270.0917)" fill="#FFFFFF" width="4.9" height="2.9"/>
		
			<rect x="140.9" y="101.9" transform="matrix(-0.7779 -0.6283 0.6283 -0.7779 186.9081 272.8074)" fill="#D9D8D7" width="1.6" height="2.9"/>
		<path fill="#F68360" d="M139.4,107.4c-0.4,0.5-1,0.8-1.7,0.9c-0.7,0.1-1.3-0.1-1.8-0.5l0,0c-0.5-0.4-0.8-1-0.9-1.7
			c-0.1-0.7,0.1-1.3,0.5-1.8l1.9-2.4l3.8,3.1L139.4,107.4z"/>
		<path fill="#ED6D47" d="M135.1,106.1c0-0.4,0-0.8,0.2-1.1c0.1,0.2,0.3,0.4,0.5,0.6c0.5,0.4,1.1,0.6,1.8,0.5
			c0.7-0.1,1.3-0.4,1.7-0.9l1-1.2l1.2,1l-1.9,2.4c-0.4,0.5-1,0.8-1.7,0.9c-0.7,0.1-1.3-0.1-1.8-0.5
			C135.5,107.3,135.1,106.8,135.1,106.1z"/>
	</g>
	<g>
		<path fill="#F2F2F2" d="M148.1,34.9l4.4,3.5l1.1-1.3l10.8,8.7c0.5,3.2,2.1,6.2,4.8,8.4l-0.6,0.8l-9.7-7.8l0.7-0.9l-13.8-11.1
			L148.1,34.9z"/>
		<path fill="#F2F2F2" d="M140.3,44.5l4.4,3.5l-1.1,1.3l10.8,8.7c3.2-0.2,6.5,0.7,9.2,2.9l0.6-0.8l-9.7-7.8l-0.7,0.9l-13.8-11.1
			L140.3,44.5z"/>
		<g>
			
				<rect x="137.7" y="34" transform="matrix(0.7779 0.6283 -0.6283 0.7779 69.0654 -74.8103)" fill="#FFFFFF" width="5.3" height="52.7"/>
			<g>
				<g>
					<g>
						
							<rect x="155.6" y="44.1" transform="matrix(0.6283 -0.7779 0.7779 0.6283 23.0978 137.6883)" fill="#232E38" width="0.1" height="1.2"/>
						
							<rect x="154.4" y="45.6" transform="matrix(0.6283 -0.7779 0.7779 0.6283 21.4778 137.3026)" fill="#232E38" width="0.1" height="1.2"/>
						
							<rect x="153.2" y="47.1" transform="matrix(0.6283 -0.7779 0.7779 0.6283 19.8574 136.9168)" fill="#232E38" width="0.1" height="1.2"/>
						
							<rect x="151.9" y="48.6" transform="matrix(0.6283 -0.7779 0.7779 0.6283 18.2381 136.5312)" fill="#232E38" width="0.1" height="1.2"/>
						
							<rect x="150.7" y="50.1" transform="matrix(0.6283 -0.7779 0.7779 0.6283 16.6173 136.1454)" fill="#232E38" width="0.1" height="1.2"/>
						
							<rect x="149.5" y="51.6" transform="matrix(0.6283 -0.7779 0.7779 0.6283 14.9972 135.7596)" fill="#232E38" width="0.1" height="1.2"/>
						
							<rect x="148.3" y="53.1" transform="matrix(0.6283 -0.7779 0.7779 0.6283 13.3782 135.3741)" fill="#232E38" width="0.1" height="1.2"/>
						
							<rect x="147.1" y="54.6" transform="matrix(0.6283 -0.7779 0.7779 0.6283 11.7568 134.9881)" fill="#232E38" width="0.1" height="1.2"/>
						
							<rect x="145.9" y="56.1" transform="matrix(0.6283 -0.7779 0.7779 0.6283 10.1369 134.6024)" fill="#232E38" width="0.1" height="1.2"/>
						
							<rect x="144.7" y="57.6" transform="matrix(0.6283 -0.7779 0.7779 0.6283 8.5172 134.2168)" fill="#232E38" width="0.1" height="1.2"/>
						
							<rect x="143.4" y="59.1" transform="matrix(0.6283 -0.7779 0.7779 0.6283 6.8972 133.8311)" fill="#232E38" width="0.1" height="1.2"/>
						
							<rect x="142.2" y="60.6" transform="matrix(0.6283 -0.7779 0.7779 0.6283 5.2777 133.4455)" fill="#232E38" width="0.1" height="1.2"/>
						
							<rect x="141" y="62.1" transform="matrix(0.6283 -0.7779 0.7779 0.6283 3.6574 133.0597)" fill="#232E38" width="0.1" height="1.2"/>
						
							<rect x="139.8" y="63.6" transform="matrix(0.6283 -0.7779 0.7779 0.6283 2.0374 132.674)" fill="#232E38" width="0.1" height="1.2"/>
						
							<rect x="138.6" y="65.1" transform="matrix(0.6283 -0.7779 0.7779 0.6283 0.4162 132.288)" fill="#232E38" width="0.1" height="1.2"/>
						
							<rect x="137.4" y="66.6" transform="matrix(0.6283 -0.7779 0.7779 0.6283 -1.2028 131.9025)" fill="#232E38" width="0.1" height="1.2"/>
						
							<rect x="136.2" y="68.1" transform="matrix(0.6283 -0.7779 0.7779 0.6283 -2.8228 131.5168)" fill="#232E38" width="0.1" height="1.2"/>
						
							<rect x="135" y="69.6" transform="matrix(0.6283 -0.7779 0.7779 0.6283 -4.4424 131.1312)" fill="#232E38" width="0.1" height="1.2"/>
						
							<rect x="133.7" y="71.1" transform="matrix(0.6283 -0.7779 0.7779 0.6283 -6.0629 130.7454)" fill="#232E38" width="0.1" height="1.2"/>
						
							<rect x="132.5" y="72.6" transform="matrix(0.6283 -0.7779 0.7779 0.6283 -7.683 130.3596)" fill="#232E38" width="0.1" height="1.2"/>
					</g>
					<g>
						
							<rect x="155.2" y="45.3" transform="matrix(0.6283 -0.7779 0.7779 0.6283 22.2299 137.7394)" fill="#232E38" width="0.1" height="0.6"/>
						
							<rect x="154" y="46.8" transform="matrix(0.6283 -0.7779 0.7779 0.6283 20.6103 137.3538)" fill="#232E38" width="0.1" height="0.6"/>
						
							<rect x="152.8" y="48.3" transform="matrix(0.6283 -0.7779 0.7779 0.6283 18.9898 136.968)" fill="#232E38" width="0.1" height="0.6"/>
						
							<rect x="151.6" y="49.8" transform="matrix(0.6283 -0.7779 0.7779 0.6283 17.3694 136.5822)" fill="#232E38" width="0.1" height="0.6"/>
						
							<rect x="150.4" y="51.3" transform="matrix(0.6283 -0.7779 0.7779 0.6283 15.75 136.1966)" fill="#232E38" width="0.1" height="0.6"/>
						
							<rect x="149.2" y="52.8" transform="matrix(0.6283 -0.7779 0.7779 0.6283 14.1299 135.8109)" fill="#232E38" width="0.1" height="0.6"/>
						
							<rect x="147.9" y="54.3" transform="matrix(0.6283 -0.7779 0.7779 0.6283 12.5103 135.4253)" fill="#232E38" width="0.1" height="0.6"/>
						
							<rect x="146.7" y="55.8" transform="matrix(0.6283 -0.7779 0.7779 0.6283 10.8892 135.0393)" fill="#232E38" width="0.1" height="0.6"/>
						
							<rect x="145.5" y="57.3" transform="matrix(0.6283 -0.7779 0.7779 0.6283 9.2701 134.6538)" fill="#232E38" width="0.1" height="0.6"/>
						
							<rect x="144.3" y="58.8" transform="matrix(0.6283 -0.7779 0.7779 0.6283 7.6498 134.268)" fill="#232E38" width="0.1" height="0.6"/>
						
							<rect x="143.1" y="60.3" transform="matrix(0.6283 -0.7779 0.7779 0.6283 6.0294 133.8822)" fill="#232E38" width="0.1" height="0.6"/>
						
							<rect x="141.9" y="61.8" transform="matrix(0.6283 -0.7779 0.7779 0.6283 4.41 133.4966)" fill="#232E38" width="0.1" height="0.6"/>
						
							<rect x="140.7" y="63.3" transform="matrix(0.6283 -0.7779 0.7779 0.6283 2.7898 133.1109)" fill="#232E38" width="0.1" height="0.6"/>
						
							<rect x="139.5" y="64.8" transform="matrix(0.6283 -0.7779 0.7779 0.6283 1.1687 132.7249)" fill="#232E38" width="0.1" height="0.6"/>
						
							<rect x="138.2" y="66.3" transform="matrix(0.6283 -0.7779 0.7779 0.6283 -0.4509 132.3393)" fill="#232E38" width="0.1" height="0.6"/>
						
							<rect x="137" y="67.9" transform="matrix(0.6283 -0.7779 0.7779 0.6283 -2.0707 131.9536)" fill="#232E38" width="0.1" height="0.6"/>
						
							<rect x="135.8" y="69.4" transform="matrix(0.6283 -0.7779 0.7779 0.6283 -3.691 131.5679)" fill="#232E38" width="0.1" height="0.6"/>
						
							<rect x="134.6" y="70.9" transform="matrix(0.6283 -0.7779 0.7779 0.6283 -5.3108 131.1822)" fill="#232E38" width="0.1" height="0.6"/>
						
							<rect x="133.4" y="72.4" transform="matrix(0.6283 -0.7779 0.7779 0.6283 -6.9315 130.7963)" fill="#232E38" width="0.1" height="0.6"/>
						
							<rect x="131.3" y="74.1" transform="matrix(0.6283 -0.7779 0.7779 0.6283 -9.3027 129.974)" fill="#232E38" width="0.1" height="1.2"/>
						
							<rect x="132.2" y="73.9" transform="matrix(0.6283 -0.7779 0.7779 0.6283 -8.5509 130.4108)" fill="#232E38" width="0.1" height="0.6"/>
					</g>
				</g>
			</g>
		</g>
		
			<rect x="140.7" y="45.7" transform="matrix(0.7779 0.6283 -0.6283 0.7779 64.9857 -77.2323)" fill="#F2F2F2" width="2.1" height="15.3"/>
		
			<rect x="139.9" y="51.9" transform="matrix(-0.7779 -0.6283 0.6283 -0.7779 215.8364 182.5498)" fill="#FFFFFF" width="0.6" height="2.5"/>
		<g>
			
				<rect x="145.9" y="49.8" transform="matrix(0.7779 0.6283 -0.6283 0.7779 68.7421 -79.544)" fill="#F2F2F2" width="2.1" height="15.3"/>
			<g>
				<g>
					
						<rect x="150.1" y="52.1" transform="matrix(0.6283 -0.7779 0.7779 0.6283 14.8384 136.4268)" fill="#232E38" width="0.1" height="1.2"/>
					
						<rect x="148.9" y="53.6" transform="matrix(0.6283 -0.7779 0.7779 0.6283 13.2182 136.0411)" fill="#232E38" width="0.1" height="1.2"/>
					
						<rect x="147.7" y="55.1" transform="matrix(0.6283 -0.7779 0.7779 0.6283 11.5994 135.6557)" fill="#232E38" width="0.1" height="1.2"/>
					
						<rect x="146.5" y="56.6" transform="matrix(0.6283 -0.7779 0.7779 0.6283 9.9785 135.2697)" fill="#232E38" width="0.1" height="1.2"/>
					
						<rect x="145.3" y="58.1" transform="matrix(0.6283 -0.7779 0.7779 0.6283 8.3595 134.8843)" fill="#232E38" width="0.1" height="1.2"/>
					
						<rect x="144.1" y="59.6" transform="matrix(0.6283 -0.7779 0.7779 0.6283 6.7386 134.4983)" fill="#232E38" width="0.1" height="1.2"/>
					
						<rect x="142.9" y="61.1" transform="matrix(0.6283 -0.7779 0.7779 0.6283 5.1186 134.1126)" fill="#232E38" width="0.1" height="1.2"/>
					
						<rect x="149.3" y="53" transform="matrix(0.6283 -0.7779 0.7779 0.6283 14.087 135.9899)" fill="#232E38" width="0.1" height="0.6"/>
					
						<rect x="148.1" y="54.5" transform="matrix(0.6283 -0.7779 0.7779 0.6283 12.4676 135.6043)" fill="#232E38" width="0.1" height="0.6"/>
					
						<rect x="146.9" y="56" transform="matrix(0.6283 -0.7779 0.7779 0.6283 10.847 135.2185)" fill="#232E38" width="0.1" height="0.6"/>
					
						<rect x="145.7" y="57.5" transform="matrix(0.6283 -0.7779 0.7779 0.6283 9.2274 134.8329)" fill="#232E38" width="0.1" height="0.6"/>
					
						<rect x="144.5" y="59" transform="matrix(0.6283 -0.7779 0.7779 0.6283 7.6067 134.447)" fill="#232E38" width="0.1" height="0.6"/>
					
						<rect x="143.3" y="60.5" transform="matrix(0.6283 -0.7779 0.7779 0.6283 5.9865 134.0612)" fill="#232E38" width="0.1" height="0.6"/>
				</g>
			</g>
		</g>
	</g>
</g>
<g>
	<path fill="none" stroke="#1D1D1B" stroke-width="0.6031" stroke-miterlimit="10" d="M64.9,70.3"/>
	<ellipse fill="#1A78CE" cx="69.1" cy="45.4" rx="1" ry="0.7"/>
	<g>
		<g>
			<polygon fill="#2091F6" points="42.8,70 38.2,62 43.2,69.8 			"/>
		</g>
		<g>
			<polygon fill="#2091F6" points="43.9,67.6 41.2,62.7 44.3,67.3 			"/>
		</g>
		<g>
			<polygon fill="#2091F6" points="41.7,71.8 40.2,69 42.1,71.6 			"/>
		</g>
	</g>
	<g>
		
			<line opacity="0.36" fill="none" stroke="#FFFFFF" stroke-width="0.4734" stroke-linecap="round" stroke-linejoin="round" stroke-miterlimit="10" enable-background="new    " x1="69.5" y1="20.8" x2="69.5" y2="21.7"/>
		
			<line opacity="0.36" fill="none" stroke="#FFFFFF" stroke-width="0.4734" stroke-linecap="round" stroke-linejoin="round" stroke-miterlimit="10" enable-background="new    " x1="68.2" y1="20.8" x2="68.2" y2="21.7"/>
	</g>
	<path fill="none" stroke="#F8D247" stroke-width="0.2516" stroke-miterlimit="10" d="M63.9,13.6"/>
	<g>
		<g>
			<ellipse fill="#F8D247" cx="65.2" cy="71" rx="1.9" ry="2.5"/>
			<path fill="#FBCD43" d="M67.2,71c0,0,0,0.1,0,0.2c0,0.1,0,0.2-0.1,0.5c-0.1,0.2-0.1,0.4-0.2,0.7c-0.1,0.1-0.1,0.2-0.2,0.4
				c-0.1,0.1-0.2,0.3-0.3,0.4c-0.1,0.1-0.3,0.2-0.4,0.3c-0.1,0.1-0.2,0.1-0.3,0.1c-0.1,0.1-0.2,0.1-0.3,0.1c-0.1,0-0.2,0.1-0.3,0
				c-0.1,0-0.2-0.1-0.3-0.1c-0.1,0-0.2-0.1-0.3-0.1c-0.1-0.1-0.2-0.1-0.3-0.2c-0.3-0.2-0.6-0.6-0.8-1c-0.2-0.4-0.2-0.8-0.3-1.3
				c0-0.4,0.1-0.9,0.2-1.3c0.2-0.4,0.5-0.8,0.8-1c0.3-0.2,0.8-0.3,1.2-0.3c0.1,0,0.2,0.1,0.3,0.1c0.1,0.1,0.2,0.1,0.3,0.1
				c0.1,0.1,0.3,0.2,0.4,0.3c0.1,0.1,0.2,0.2,0.3,0.4c0.1,0.1,0.2,0.2,0.2,0.4c0.1,0.2,0.1,0.5,0.2,0.7C67.3,70.6,67.2,70.8,67.2,71
				C67.2,70.9,67.2,71,67.2,71z M67.1,71c0,0,0-0.1,0-0.2c0-0.1,0-0.2-0.1-0.5c-0.1-0.2-0.1-0.4-0.2-0.6c-0.1-0.1-0.1-0.2-0.2-0.3
				c-0.1-0.1-0.2-0.2-0.3-0.3c-0.1-0.1-0.2-0.2-0.4-0.3c-0.1-0.1-0.2-0.1-0.2-0.1l-0.1-0.1h-0.1c-0.3-0.1-0.7,0.1-1,0.2
				c-0.3,0.2-0.6,0.5-0.8,0.9c-0.2,0.3-0.2,0.8-0.3,1.2c0,0.4,0.1,0.9,0.2,1.3c0.2,0.4,0.4,0.8,0.8,0.9c0.1,0.1,0.2,0.1,0.2,0.1
				c0.1,0,0.2,0.1,0.3,0.1c0.1,0,0.2,0,0.3,0c0.1,0,0.2,0,0.2-0.1c0.1,0,0.2-0.1,0.2-0.1c0.1-0.1,0.2-0.1,0.2-0.1
				c0.1-0.1,0.3-0.2,0.4-0.3c0.1-0.1,0.2-0.2,0.3-0.3c0.1-0.1,0.2-0.2,0.2-0.3c0.1-0.2,0.2-0.5,0.2-0.6C67.1,71.3,67.1,71.1,67.1,71
				C67.1,71,67.1,71,67.1,71z"/>
		</g>
		<g>
			<ellipse fill="#F8D247" cx="59.4" cy="71" rx="1.9" ry="2.5"/>
			<path fill="#FBCD43" d="M61.3,71c0,0,0,0.1,0,0.2c0,0.1,0,0.2-0.1,0.5c-0.1,0.2-0.1,0.4-0.2,0.7c-0.1,0.1-0.1,0.2-0.2,0.4
				c-0.1,0.1-0.2,0.3-0.3,0.4s-0.3,0.2-0.4,0.3c-0.1,0.1-0.2,0.1-0.3,0.1c-0.1,0.1-0.2,0.1-0.3,0.1c-0.1,0-0.2,0.1-0.3,0
				c-0.1,0-0.2-0.1-0.3-0.1s-0.2-0.1-0.3-0.1c-0.1-0.1-0.2-0.1-0.3-0.2c-0.3-0.2-0.6-0.6-0.8-1c-0.2-0.4-0.2-0.8-0.3-1.3
				c0-0.4,0.1-0.9,0.2-1.3c0.2-0.4,0.5-0.8,0.8-1c0.3-0.2,0.8-0.3,1.2-0.3c0.1,0,0.2,0.1,0.3,0.1c0.1,0.1,0.2,0.1,0.3,0.1
				c0.1,0.1,0.3,0.2,0.4,0.3c0.1,0.1,0.2,0.2,0.3,0.4c0.1,0.1,0.2,0.2,0.2,0.4c0.1,0.2,0.1,0.5,0.2,0.7C61.4,70.6,61.3,70.8,61.3,71
				C61.3,70.9,61.3,71,61.3,71z M61.3,71c0,0,0-0.1,0-0.2c0-0.1,0-0.2-0.1-0.5c-0.1-0.2-0.1-0.4-0.2-0.6c-0.1-0.1-0.1-0.2-0.2-0.3
				c-0.1-0.1-0.2-0.2-0.3-0.3c-0.1-0.1-0.2-0.2-0.4-0.3c-0.1-0.1-0.2-0.1-0.2-0.1l-0.1-0.1h-0.1c-0.3-0.1-0.7,0.1-1,0.2
				c-0.3,0.2-0.6,0.5-0.8,0.9c-0.2,0.3-0.2,0.8-0.3,1.2c0,0.4,0.1,0.9,0.2,1.3c0.2,0.4,0.4,0.8,0.8,0.9c0.1,0.1,0.2,0.1,0.2,0.1
				c0.1,0,0.2,0.1,0.3,0.1s0.2,0,0.3,0c0.1,0,0.2,0,0.2-0.1c0.1,0,0.2-0.1,0.2-0.1c0.1-0.1,0.2-0.1,0.2-0.1c0.1-0.1,0.3-0.2,0.4-0.3
				c0.1-0.1,0.2-0.2,0.3-0.3c0.1-0.1,0.2-0.2,0.2-0.3c0.1-0.2,0.2-0.5,0.2-0.6C61.3,71.3,61.3,71.1,61.3,71C61.3,71,61.3,71,61.3,71
				z"/>
		</g>
		<g>
			<ellipse fill="#F8D247" cx="62.3" cy="71" rx="2.1" ry="4"/>
			<path fill="#FBCD43" d="M64.4,71c0,0,0,0.1,0,0.2c0,0.1,0,0.3-0.1,0.6c-0.1,0.3-0.1,0.6-0.2,0.9c-0.1,0.3-0.2,0.8-0.4,1.2
				c-0.2,0.4-0.5,0.9-1.1,1c-0.6,0.2-1.2-0.1-1.5-0.6c-0.3-0.5-0.6-1-0.8-1.6s-0.2-1.2-0.2-1.8s0.1-1.2,0.2-1.8
				c0.2-0.6,0.4-1.2,0.8-1.6c0.2-0.2,0.4-0.4,0.7-0.5c0.3-0.1,0.6-0.1,0.9-0.1c0.6,0.2,0.9,0.6,1.1,1c0.2,0.4,0.3,0.8,0.4,1.2
				c0.1,0.3,0.1,0.7,0.2,0.9c0,0.3,0.1,0.5,0.1,0.6C64.4,70.9,64.4,71,64.4,71z M64.4,71c0,0,0-0.1,0-0.2c0-0.1,0-0.3-0.1-0.6
				c-0.1-0.5-0.2-1.3-0.7-2c-0.2-0.3-0.6-0.8-1-0.9c-0.5-0.2-1,0.1-1.3,0.5c-0.3,0.4-0.6,1-0.8,1.5c-0.2,0.6-0.2,1.2-0.2,1.8
				c0,0.6,0.1,1.2,0.2,1.8c0.2,0.6,0.4,1.1,0.8,1.6c0.2,0.2,0.4,0.4,0.6,0.5c0.1,0.1,0.2,0.1,0.3,0.1s0.2,0,0.3-0.1
				c0.5-0.2,0.8-0.6,1-0.9c0.5-0.8,0.6-1.6,0.7-2c0-0.3,0.1-0.5,0.1-0.6C64.4,71,64.4,71,64.4,71z"/>
		</g>
		<g>
			<line fill="none" x1="59.1" y1="70" x2="59.1" y2="70.6"/>
			<path fill="#EEC340" d="M59.4,69.9c0,0,0.1,0.2,0.1,0.3c0,0.1,0.1,0.1,0.1,0.1c0,0.1,0,0.1-0.1,0.1c-0.1,0.1-0.1,0.1-0.1,0.1l0,0
				c0,0-0.1-0.1-0.1-0.1c0-0.1-0.1-0.1-0.1-0.1c0-0.1,0-0.1,0.1-0.1C59.3,70.1,59.4,69.9,59.4,69.9L59.4,69.9z"/>
		</g>
		<g>
			<line fill="none" x1="62.6" y1="68.2" x2="62.6" y2="69.4"/>
			<path fill="#EEC340" d="M62.4,68.2c0,0,0.1,0.2,0.1,0.5c0,0.1,0.1,0.1,0.1,0.2c0,0.1,0,0.2-0.1,0.3c-0.1,0.1-0.1,0.3-0.1,0.3
				h-0.1c0,0-0.1-0.2-0.1-0.3c0-0.1-0.1-0.2-0.1-0.2c0-0.1,0-0.1,0.1-0.1C62.3,68.4,62.4,68.2,62.4,68.2L62.4,68.2z"/>
		</g>
		<g>
			<line fill="none" x1="65.5" y1="70" x2="65.5" y2="70.6"/>
			<path fill="#EEC340" d="M65.4,69.9c0,0,0.1,0.2,0.1,0.3c0,0.1,0.1,0.1,0.1,0.1c0,0.1,0,0.1-0.1,0.1c-0.1,0.1-0.1,0.1-0.1,0.1
				h-0.1c0,0-0.1-0.1-0.1-0.1c0-0.1-0.1-0.1-0.1-0.1c0-0.1,0-0.1,0.1-0.1C65.3,70.1,65.3,69.9,65.4,69.9L65.4,69.9z"/>
		</g>
	</g>
	<g>
		<g>
			<ellipse fill="#F8D247" cx="77" cy="71" rx="1.9" ry="2.5"/>
			<path fill="#FBCD43" d="M78.9,71c0,0,0,0.1,0,0.2c0,0.1,0,0.2-0.1,0.5c-0.1,0.2-0.1,0.4-0.2,0.7c-0.1,0.1-0.1,0.2-0.2,0.4
				c-0.1,0.1-0.2,0.3-0.3,0.4c-0.1,0.1-0.3,0.2-0.4,0.3c-0.1,0.1-0.2,0.1-0.3,0.1c-0.1,0.1-0.2,0.1-0.3,0.1c-0.1,0-0.2,0.1-0.3,0
				c-0.1,0-0.2-0.1-0.3-0.1c-0.1,0-0.2-0.1-0.3-0.1c-0.1-0.1-0.2-0.1-0.3-0.2c-0.3-0.2-0.6-0.6-0.8-1c-0.2-0.4-0.2-0.8-0.3-1.3
				c0-0.5,0.1-0.9,0.2-1.3c0.2-0.4,0.5-0.8,0.8-1c0.3-0.2,0.8-0.3,1.2-0.3c0.1,0,0.2,0.1,0.3,0.1c0.1,0.1,0.2,0.1,0.3,0.1
				c0.1,0.1,0.3,0.2,0.4,0.3c0.1,0.1,0.2,0.2,0.3,0.4c0.1,0.1,0.2,0.2,0.2,0.4c0.1,0.2,0.1,0.5,0.2,0.7C79,70.6,78.9,70.8,78.9,71
				C78.9,70.9,78.9,71,78.9,71z M78.9,71c0,0,0-0.1,0-0.2c0-0.1,0-0.2-0.1-0.5c-0.1-0.2-0.1-0.4-0.2-0.6c-0.1-0.1-0.1-0.2-0.2-0.3
				c-0.1-0.1-0.2-0.2-0.3-0.3c-0.1-0.1-0.2-0.2-0.4-0.3c-0.1-0.1-0.2-0.1-0.2-0.1l-0.1-0.1h-0.1c-0.3-0.1-0.7,0.1-1,0.2
				c-0.3,0.2-0.6,0.5-0.8,0.9c-0.2,0.3-0.2,0.8-0.3,1.2c0,0.4,0.1,0.9,0.2,1.3c0.2,0.4,0.4,0.8,0.8,0.9c0.1,0.1,0.2,0.1,0.2,0.1
				c0.1,0,0.2,0.1,0.3,0.1c0.1,0,0.2,0,0.3,0c0.1,0,0.2,0,0.2-0.1c0.1,0,0.2-0.1,0.2-0.1c0.1-0.1,0.2-0.1,0.2-0.1
				c0.1-0.1,0.3-0.2,0.4-0.3c0.1-0.1,0.2-0.2,0.3-0.3c0.1-0.1,0.2-0.2,0.2-0.3c0.1-0.2,0.2-0.5,0.2-0.6C78.9,71.3,78.9,71.1,78.9,71
				C78.9,71,78.9,71,78.9,71z"/>
		</g>
		<g>
			<ellipse fill="#F8D247" cx="71.2" cy="71" rx="1.9" ry="2.5"/>
			<path fill="#FBCD43" d="M73.1,71c0,0,0,0.1,0,0.2c0,0.1,0,0.2-0.1,0.5C73,71.8,73,72,72.9,72.3c-0.1,0.1-0.1,0.2-0.2,0.4
				c-0.1,0.1-0.2,0.3-0.3,0.4c-0.1,0.1-0.3,0.2-0.4,0.3c-0.1,0.1-0.2,0.1-0.3,0.1c-0.1,0.1-0.2,0.1-0.3,0.1c-0.1,0-0.2,0.1-0.3,0
				c-0.1,0-0.2-0.1-0.3-0.1c-0.1,0-0.2-0.1-0.3-0.1c-0.1-0.1-0.2-0.1-0.3-0.2c-0.3-0.2-0.6-0.6-0.8-1c-0.2-0.4-0.2-0.8-0.3-1.3
				c0-0.4,0.1-0.9,0.2-1.3c0.2-0.4,0.5-0.8,0.8-1c0.3-0.2,0.8-0.3,1.2-0.3c0.1,0,0.2,0.1,0.3,0.1c0.1,0.1,0.2,0.1,0.3,0.1
				c0.1,0.1,0.3,0.2,0.4,0.3c0.1,0.1,0.2,0.2,0.3,0.4c0.1,0.1,0.2,0.2,0.2,0.4c0.1,0.2,0.1,0.5,0.2,0.7C73.2,70.6,73.1,70.8,73.1,71
				C73.1,70.9,73.1,71,73.1,71z M73.1,71c0,0,0-0.1,0-0.2c0-0.1,0-0.2-0.1-0.5c-0.1-0.2-0.1-0.4-0.2-0.6c-0.1-0.1-0.1-0.2-0.2-0.3
				c-0.1-0.1-0.2-0.2-0.3-0.3c-0.1-0.1-0.2-0.2-0.4-0.3c-0.1-0.1-0.2-0.1-0.2-0.1l-0.1-0.1h-0.1c-0.3-0.1-0.7,0.1-1,0.2
				c-0.3,0.2-0.6,0.5-0.8,0.9c-0.2,0.3-0.2,0.8-0.3,1.2c0,0.4,0.1,0.9,0.2,1.3c0.2,0.4,0.4,0.8,0.8,0.9c0.1,0.1,0.2,0.1,0.2,0.1
				c0.1,0,0.2,0.1,0.3,0.1c0.1,0,0.2,0,0.3,0c0.1,0,0.2,0,0.2-0.1c0.1,0,0.2-0.1,0.2-0.1c0.1-0.1,0.2-0.1,0.2-0.1
				c0.1-0.1,0.3-0.2,0.4-0.3c0.1-0.1,0.2-0.2,0.3-0.3c0.1-0.1,0.2-0.2,0.2-0.3c0.1-0.2,0.2-0.5,0.2-0.6C73.1,71.3,73.1,71.1,73.1,71
				C73.1,71,73.1,71,73.1,71z"/>
		</g>
		<g>
			<ellipse fill="#F8D247" cx="74.1" cy="71" rx="2.1" ry="4"/>
			<path fill="#FBCD43" d="M76.2,71c0,0,0,0.1,0,0.2c0,0.1,0,0.3-0.1,0.6s-0.1,0.6-0.2,0.9c-0.1,0.3-0.2,0.8-0.4,1.2
				c-0.2,0.4-0.5,0.9-1.1,1c-0.6,0.2-1.2-0.1-1.5-0.6c-0.3-0.5-0.6-1-0.8-1.6C72,72.2,72,71.6,72,71c0-0.6,0.1-1.2,0.2-1.8
				c0.2-0.6,0.4-1.2,0.8-1.6c0.2-0.2,0.4-0.4,0.7-0.5c0.3-0.1,0.6-0.1,0.9-0.1c0.6,0.2,0.9,0.6,1.1,1c0.2,0.4,0.3,0.8,0.4,1.2
				c0.1,0.3,0.1,0.7,0.2,0.9c0,0.3,0.1,0.5,0.1,0.6C76.1,70.9,76.2,71,76.2,71z M76.1,71c0,0,0-0.1,0-0.2c0-0.1,0-0.3-0.1-0.6
				c-0.1-0.5-0.2-1.3-0.7-2c-0.2-0.3-0.6-0.8-1-0.9c-0.5-0.2-1,0.1-1.3,0.5c-0.3,0.4-0.6,1-0.8,1.5c-0.2,0.6-0.2,1.2-0.2,1.8
				c0,0.6,0.1,1.2,0.2,1.8c0.2,0.6,0.4,1.1,0.8,1.6c0.2,0.2,0.4,0.4,0.6,0.5c0.1,0.1,0.2,0.1,0.3,0.1c0.1,0,0.2,0,0.3-0.1
				c0.5-0.2,0.8-0.6,1-0.9c0.5-0.8,0.6-1.6,0.7-2c0-0.3,0.1-0.5,0.1-0.6C76.1,71,76.1,71,76.1,71z"/>
		</g>
		<g>
			<line fill="none" x1="71.3" y1="70" x2="71.3" y2="70.6"/>
			<path fill="#EEC340" d="M71.2,69.8c0,0,0.1,0.2,0.1,0.3c0,0.1,0.1,0.1,0.1,0.1c0,0.1,0,0.1-0.1,0.1c-0.1,0.1-0.1,0.1-0.1,0.1
				h-0.1c0,0-0.1-0.1-0.1-0.1c0-0.1-0.1-0.1-0.1-0.1c0-0.1,0-0.1,0.1-0.1C71.1,70,71.1,69.8,71.2,69.8L71.2,69.8z"/>
		</g>
		<g>
			<line fill="none" x1="74.2" y1="67.7" x2="74.2" y2="68.8"/>
			<path fill="#EEC340" d="M74.2,67.7c0,0,0.1,0.3,0.1,0.6c0,0.1,0.1,0.2,0.1,0.2c0,0.1,0,0.1-0.1,0.1c-0.1,0.1-0.1,0.1-0.1,0.1
				h-0.1c0,0-0.1,0-0.1-0.1c0-0.1-0.1-0.1-0.1-0.2c0-0.1,0-0.2,0.1-0.2C74.1,68,74.2,67.7,74.2,67.7L74.2,67.7z"/>
		</g>
		<g>
			<line fill="none" x1="77.1" y1="70" x2="77.1" y2="70.6"/>
			<path fill="#EEC340" d="M77.2,69.8c0,0,0.1,0.2,0.1,0.3c0,0.1,0.1,0.1,0.1,0.1c0,0.1,0,0.1-0.1,0.1c-0.1,0.1-0.1,0.1-0.1,0.1
				h-0.1c0,0-0.1-0.1-0.1-0.1c0-0.1-0.1-0.1-0.1-0.1c0-0.1,0-0.1,0.1-0.1C77.1,70,77.1,69.8,77.2,69.8L77.2,69.8z"/>
		</g>
	</g>
	<path fill="#E6E6E6" d="M85.6,111.3v-3.7H55.9v3.7c0.2,18.5-7.4,18.5-7.4,18.5c0,2,1.7,3.7,3.7,3.7h37c2,0,3.7-1.7,3.7-3.7
		C93,129.8,85.4,129.8,85.6,111.3z"/>
	<path fill="#434854" d="M130,92.8L130,92.8V22.4c0-4.1-3.3-7.4-7.4-7.4H18.9c-4.1,0-7.4,3.3-7.4,7.4v70.4l0,0H130z"/>
	<rect x="18.9" y="22.4" fill="#FFFFFF" width="103.7" height="63"/>
	<path fill="#E6E6E6" d="M11.5,92.8v7.4c0,4.1,3.3,7.4,7.4,7.4h103.7c4.1,0,7.4-3.3,7.4-7.4v-7.4H11.5z"/>
	<path opacity="0.1" enable-background="new    " d="M74.5,100.1c0-2-1.7-3.7-3.7-3.7c-2,0-3.7,1.7-3.7,3.7c0,2,1.7,3.7,3.7,3.7
		C72.8,103.8,74.5,102.2,74.5,100.1z"/>
	<rect x="55.9" y="107.6" opacity="0.1" enable-background="new    " width="29.6" height="3.7"/>
	<g id="web_design_4_">
		<g>
			<rect x="32.4" y="62.4" fill="#FFD680" width="21.5" height="8.2"/>
			<rect x="32.4" y="73.9" fill="#CACACA" width="21.5" height="0.6"/>
			<rect x="32.4" y="75.6" fill="#CACACA" width="21.5" height="0.6"/>
			<rect x="32.4" y="77.2" fill="#CACACA" width="11.7" height="0.6"/>
			<rect x="32.4" y="72.4" fill="#CACACA" width="21.5" height="0.6"/>
		</g>
		<g>
			<g>
				<rect x="59.5" y="62.4" fill="#F06B55" width="21.5" height="8.2"/>
				<rect x="59.5" y="73.9" fill="#CACACA" width="21.5" height="0.6"/>
				<rect x="59.5" y="75.6" fill="#CACACA" width="21.5" height="0.6"/>
				<rect x="59.5" y="77.2" fill="#CACACA" width="11.6" height="0.6"/>
			</g>
			<rect x="59.5" y="72.4" fill="#CACACA" width="21.5" height="0.6"/>
		</g>
		<g>
			<rect x="86.5" y="62.4" fill="#5FBAF3" width="21.5" height="8.2"/>
			<rect x="86.5" y="73.9" fill="#CACACA" width="21.5" height="0.6"/>
			<rect x="86.5" y="72.4" fill="#CACACA" width="21.5" height="0.6"/>
			<rect x="86.5" y="75.6" fill="#CACACA" width="21.5" height="0.6"/>
			<rect x="86.5" y="77.2" fill="#CACACA" width="10.7" height="0.6"/>
		</g>
		<rect x="32.2" y="35.9" fill="#5FD2AD" width="75.8" height="24.8"/>
	</g>
	<rect x="18.9" y="26.7" fill="#EAEAE9" width="103.7" height="6.6"/>
	<rect x="18.9" y="22.4" fill="#CCCCCC" width="103.7" height="4.5"/>
	<path fill="#B9C5CF" d="M39.6,26.9c1.2,0,1.2-3.1,2.1-3.1h11.5c1.2,0,1.2,3.1,2.1,3.1H39.6z"/>
	<g>
		<g>
			<path fill="#475568" d="M53.2,25.6L53,25.3l0.2-0.2c0.1-0.1,0.1-0.1,0-0.1c-0.1-0.1-0.1-0.1-0.1,0l-0.2,0.2L52.7,25
				c-0.1-0.1-0.1-0.1-0.1,0s-0.1,0.1,0,0.1l0.2,0.2l-0.2,0.2c-0.1,0.1-0.1,0.1,0,0.1s0.1,0.1,0.1,0l0.2-0.2l0.2,0.2
				c0.1,0.1,0.1,0.1,0.1,0C53.3,25.6,53.3,25.6,53.2,25.6z"/>
		</g>
	</g>
	<path fill="#FFFFFF" d="M106.6,31.6c0,0.3-0.2,0.5-0.5,0.5l-67.5-0.2c-0.3,0-0.5-0.2-0.5-0.5v-2.7c0-0.3,0.2-0.5,0.5-0.5l67.4,0.2
		c0.3,0,0.5,0.2,0.5,0.5L106.6,31.6L106.6,31.6z"/>
	<path opacity="0.1" enable-background="new    " d="M52.2,133.5h37c2,0,3.7-1.7,3.7-3.7H48.6C48.6,131.8,50.2,133.5,52.2,133.5z"/>
	<path opacity="0.1" fill="#E6E6E6" enable-background="new    " d="M122.6,14.9H74.5l29.6,77.8h26l0,0V22.4
		C130,18.3,126.7,14.9,122.6,14.9z"/>
	<path opacity="0.3" enable-background="new    " d="M31.1,30.9c0.1-0.1,0.7-0.8,0.7-0.8c0.1-0.1,0.1-0.1,0.1-0.1
		c0-0.1,0-0.1-0.1-0.1c0,0-0.6-0.7-0.7-0.8c-0.1-0.1-0.2-0.1-0.2,0c-0.1,0.1-0.1,0.2,0,0.2l0.6,0.6l-0.6,0.6c-0.1,0.1-0.1,0.2,0,0.2
		C31,31,31.1,31,31.1,30.9z"/>
	<path opacity="0.3" enable-background="new    " d="M28.1,29.2c-0.1,0.1-0.7,0.8-0.7,0.8C27.4,30,27.4,30,27.4,30
		c0,0.1,0,0.1,0.1,0.1c0,0,0.6,0.7,0.7,0.8c0.1,0.1,0.2,0.1,0.2,0c0.1-0.1,0.1-0.2,0-0.2L27.8,30l0.6-0.6c0.1-0.1,0.1-0.2,0-0.2
		C28.3,29.1,28.2,29.1,28.1,29.2z"/>
	<path fill="none" stroke="#00A14B" stroke-width="7.051909e-02" stroke-miterlimit="10" d="M84,32.5"/>
	<path fill="none" stroke="#00A14B" stroke-width="7.051909e-02" stroke-miterlimit="10" d="M79.4,40.8"/>
	<path fill="#EAEAE9" d="M25.9,26.9c1.2,0,1.2-3.1,2.1-3.1h11.5c1.2,0,1.2,3.1,2.1,3.1H25.9z"/>
	<g>
		<g>
			<path fill="#475568" d="M39.5,25.7l-0.2-0.2l0.2-0.2c0.1-0.1,0.1-0.1,0-0.1s-0.1-0.1-0.1,0l-0.2,0.2L39,25.1
				C39,25,39,25,38.9,25.1c-0.1,0.1-0.1,0.1,0,0.1l0.2,0.2l-0.2,0.2c-0.1,0.1-0.1,0.1,0,0.1c0.1,0.1,0.1,0.1,0.1,0l0.2-0.2l0.2,0.2
				c0.1,0.1,0.1,0.1,0.1,0C39.5,25.8,39.5,25.7,39.5,25.7z"/>
		</g>
	</g>
	<g opacity="0.3">
		<g>
			<path d="M35.2,29.1c0.5,0,0.9,0.4,0.9,0.9h0.3L36,30.4l-0.4-0.5h0.3c0-0.3-0.3-0.6-0.6-0.6c-0.3,0-0.6,0.3-0.6,0.6
				c0,0.3,0.3,0.6,0.6,0.6c0.1,0,0.3-0.1,0.4-0.1l0.2,0.2c-0.2,0.1-0.3,0.2-0.5,0.2c-0.5,0-0.9-0.4-0.9-0.9
				C34.3,29.5,34.7,29.1,35.2,29.1z"/>
		</g>
	</g>
	<path fill="none" stroke="#00A14B" stroke-width="9.841213e-02" stroke-miterlimit="10" d="M93.3,67.8"/>
	<circle fill="#70B34A" cx="113.4" cy="24.8" r="0.9"/>
	<circle fill="#DDAA54" cx="116.6" cy="24.8" r="0.9"/>
	<circle fill="#D5655D" cx="119.7" cy="24.8" r="0.9"/>
	<g>
		<path fill="#A0A09F" d="M111.7,30.1h-1.9c-0.1,0-0.2,0.1-0.2,0.2c0,0.1,0.1,0.2,0.2,0.2h1.9c0.1,0,0.2-0.1,0.2-0.2
			C111.9,30.2,111.7,30.1,111.7,30.1z M109.8,29.7h1.9c0.1,0,0.2-0.1,0.2-0.2c0-0.1-0.1-0.2-0.2-0.2h-1.9c-0.1,0-0.2,0.1-0.2,0.2
			S109.6,29.7,109.8,29.7z M111.7,30.9h-1.9c-0.1,0-0.2,0.1-0.2,0.2c0,0.1,0.1,0.2,0.2,0.2h1.9c0.1,0,0.2-0.1,0.2-0.2
			C111.9,30.9,111.7,30.9,111.7,30.9z"/>
	</g>
	<g>
		<g>
			<path fill="#A4A4A4" d="M77.8,35.5"/>
		</g>
	</g>
	<g>
		<path fill="#E6E6E6" d="M50.6,129.5c0,1.9-1.5,3.3-3.3,3.3H10.8c-1.9,0-3.3-1.5-3.3-3.3V83c0-1.9,1.5-3.3,3.3-3.3h36.5
			c1.9,0,3.3,1.5,3.3,3.3V129.5z"/>
		<rect x="10.8" y="83" fill="#FFFFFF" width="36.5" height="39.8"/>
		<circle opacity="0.1" enable-background="new    " cx="29.1" cy="127.9" r="3.3"/>
		<path opacity="0.1" fill="#FFFFFF" enable-background="new    " d="M47.3,79.7H27.4l23.2,38.2V83C50.6,81.2,49.1,79.7,47.3,79.7z"
			/>
	</g>
	<rect x="10.8" y="83" fill="#CCCCCC" width="36.5" height="3.1"/>
	<g>
		<g>
			<path fill="#475568" d="M18.5,85.1L18.4,85l0.1-0.1v-0.1h-0.1l-0.1,0.1l-0.1-0.1h-0.1v0.1l0.1,0.1l-0.1,0.1v0.1h0.1l0.1-0.1
				L18.5,85.1L18.5,85.1C18.5,85.1,18.5,85.1,18.5,85.1z"/>
		</g>
	</g>
	<g>
		<rect x="10.8" y="86.1" fill="#EAEAE9" width="36.5" height="3.9"/>
		<path opacity="0.3" enable-background="new    " d="M13.9,89.1c0.1-0.1,0.4-0.5,0.4-0.5l0.1-0.1c0,0,0-0.1-0.1-0.1
			c0,0-0.4-0.4-0.4-0.5c-0.1-0.1-0.1-0.1-0.2,0c-0.1,0.1-0.1,0.1,0,0.2l0.3,0.3l-0.3,0.3c-0.1,0.1-0.1,0.1,0,0.2
			C13.8,89.2,13.8,89.2,13.9,89.1z"/>
		<path opacity="0.3" enable-background="new    " d="M12.1,88.1c-0.1,0.1-0.4,0.5-0.4,0.5l-0.1,0.1c0,0,0,0.1,0.1,0.1
			c0,0,0.4,0.4,0.4,0.5c0.1,0.1,0.1,0.1,0.2,0c0.1-0.1,0.1-0.1,0-0.2l-0.3-0.3l0.3-0.3c0.1-0.1,0.1-0.1,0-0.2
			C12.2,88,12.2,88,12.1,88.1z"/>
		<path fill="#B9C5CF" d="M18.8,86.1c0.7,0,0.7-1.8,1.3-1.8h6.7c0.7,0,0.7,1.8,1.3,1.8H18.8z"/>
		<g>
			<g>
				<path fill="#475568" d="M26.8,85.3l-0.1-0.1l0.1-0.1V85h-0.1l-0.1,0.1L26.6,85h-0.1v0.1l0.1,0.1l-0.1,0.1v0.1h0.1l0.1-0.1
					L26.8,85.3L26.8,85.3C26.8,85.4,26.8,85.4,26.8,85.3z"/>
			</g>
		</g>
		<path fill="#EAEAE9" d="M10.8,86.1c0.7,0,0.7-1.8,1.3-1.8h6.7c0.7,0,0.7,1.8,1.3,1.8H10.8z"/>
		<g opacity="0.3">
			<g>
				<path d="M16.3,88c0.3,0,0.5,0.2,0.5,0.5H17l-0.2,0.2l-0.2-0.2h0.2c0-0.2-0.2-0.3-0.4-0.3s-0.4,0.2-0.4,0.4
					c0,0.2,0.2,0.4,0.4,0.4c0.1,0,0.2,0,0.2-0.1l0.1,0.1c-0.1,0.1-0.2,0.1-0.3,0.1c-0.3,0-0.5-0.2-0.5-0.5C15.8,88.2,16,88,16.3,88z
					"/>
			</g>
		</g>
		<g>
			<path fill="#A0A09F" d="M46.4,88.1h-1.1c-0.1,0-0.1,0.1-0.1,0.1c0,0.1,0.1,0.1,0.1,0.1h1.1c0.1,0,0.1-0.1,0.1-0.1
				C46.4,88.1,46.4,88.1,46.4,88.1z M45.2,87.9h1.1c0.1,0,0.1-0.1,0.1-0.1c0-0.1-0.1-0.1-0.1-0.1h-1.1c-0.1,0-0.1,0.1-0.1,0.1
				C45.1,87.8,45.1,87.9,45.2,87.9z M46.4,88.5h-1.1c-0.1,0-0.1,0.1-0.1,0.1c0,0.1,0.1,0.1,0.1,0.1h1.1c0.1,0,0.1-0.1,0.1-0.1
				C46.4,88.6,46.4,88.5,46.4,88.5z"/>
		</g>
	</g>
	<g>
		<rect x="14.2" y="109.5" fill="#FFD680" width="12.9" height="4.9"/>
		<rect x="14.2" y="116.4" fill="#CACACA" width="12.9" height="0.3"/>
		<rect x="14.2" y="117.4" fill="#CACACA" width="12.9" height="0.3"/>
		<rect x="14.2" y="118.4" fill="#CACACA" width="7" height="0.3"/>
		<rect x="14.2" y="115.5" fill="#CACACA" width="12.9" height="0.3"/>
	</g>
	<g>
		<g>
			<rect x="30.6" y="109.5" fill="#F06B55" width="12.9" height="4.9"/>
			<rect x="30.6" y="116.4" fill="#CACACA" width="12.9" height="0.3"/>
			<rect x="30.6" y="117.4" fill="#CACACA" width="12.9" height="0.3"/>
			<rect x="30.6" y="118.4" fill="#CACACA" width="7" height="0.3"/>
		</g>
		<rect x="30.6" y="115.5" fill="#CACACA" width="12.9" height="0.3"/>
	</g>
	<rect x="14.1" y="93.5" fill="#5FD2AD" width="29.4" height="15"/>
	<path fill="none" stroke="#00A14B" stroke-width="4.252848e-02" stroke-miterlimit="10" d="M45.4,89.3"/>
	<path fill="none" stroke="#00A14B" stroke-width="4.252848e-02" stroke-miterlimit="10" d="M42.6,94.3"/>
	<g>
		<circle fill="#70B34A" cx="42.1" cy="84.6" r="0.6"/>
		<circle fill="#DDAA54" cx="43.9" cy="84.6" r="0.6"/>
		<circle fill="#D5655D" cx="45.8" cy="84.6" r="0.6"/>
	</g>
	<g>
		<g>
			<path fill="#A4A4A4" d="M41.6,91.1"/>
		</g>
	</g>
	<path fill="#FFFFFF" d="M44.2,88.9c0,0.2-0.1,0.3-0.2,0.3l-26.1,0.1c-0.1,0-0.2-0.1-0.2-0.3v-1.6c0-0.2,0.1-0.3,0.2-0.3L44,87
		c0.1,0,0.2,0.1,0.2,0.3V88.9z"/>
	<g>
		<path fill="#434854" d="M163.4,135.1L163.4,135.1V80.7c0-3.5-2.8-6.4-6.4-6.4H80c-3.5,0-6.4,2.8-6.4,6.4v54.5l0,0H163.4z"/>
		<rect x="80" y="80.7" fill="#FFFFFF" width="76.9" height="48.1"/>
		<path fill="#E6E6E6" d="M67.2,135.1v6.4c0,1.8,1.5,3.2,3.2,3.2h96.2c1.8,0,3.2-1.5,3.2-3.2v-6.4H67.2z"/>
		<path opacity="0.1" enable-background="new    " d="M115.3,138.3h6.4c1.8,0,3.2-1.5,3.2-3.2H112
			C112.1,136.9,113.5,138.3,115.3,138.3z"/>
		<path opacity="0.1" fill="#FFFFFF" enable-background="new    " d="M156.9,74.3h-38.4l28.9,60.9h16l0,0V80.7
			C163.4,77.1,160.4,74.3,156.9,74.3z"/>
	</g>
	<g id="web_design_2_">
		<g>
			<rect x="90" y="112.6" fill="#FFD680" width="15.9" height="6.1"/>
			<rect x="90" y="121.2" fill="#CACACA" width="15.9" height="0.4"/>
			<rect x="90" y="122.4" fill="#CACACA" width="15.9" height="0.4"/>
			<rect x="90" y="123.6" fill="#CACACA" width="8.7" height="0.4"/>
			<rect x="90" y="120.1" fill="#CACACA" width="15.9" height="0.4"/>
		</g>
		<g>
			<g>
				<rect x="110.1" y="112.6" fill="#F06B55" width="15.9" height="6.1"/>
				<rect x="110.1" y="121.2" fill="#CACACA" width="15.9" height="0.4"/>
				<rect x="110.1" y="122.4" fill="#CACACA" width="15.9" height="0.4"/>
				<rect x="110.1" y="123.6" fill="#CACACA" width="8.5" height="0.4"/>
			</g>
			<rect x="110.1" y="120.1" fill="#CACACA" width="15.9" height="0.4"/>
		</g>
		<g>
			<rect x="130.2" y="112.6" fill="#5FBAF3" width="15.9" height="6.1"/>
			<rect x="130.2" y="121.2" fill="#CACACA" width="15.9" height="0.4"/>
			<rect x="130.2" y="120.1" fill="#CACACA" width="15.9" height="0.4"/>
			<rect x="130.2" y="122.4" fill="#CACACA" width="15.9" height="0.4"/>
			<rect x="130.2" y="123.6" fill="#CACACA" width="8" height="0.4"/>
		</g>
		<rect x="89.9" y="93" fill="#5FD2AD" width="56.3" height="18.3"/>
	</g>
	<rect x="80" y="83.9" fill="#EAEAE9" width="76.9" height="4.9"/>
	<rect x="80" y="80.7" fill="#CCCCCC" width="76.9" height="3.4"/>
	<path opacity="0.3" enable-background="new    " d="M88.9,87.2c0.1-0.1,0.5-0.6,0.5-0.6s0.1-0.1,0.1-0.1c0-0.1,0-0.1-0.1-0.1
		c0,0-0.5-0.5-0.5-0.6c-0.1-0.1-0.1-0.1-0.2,0c-0.1,0.1-0.1,0.1,0,0.2l0.5,0.5l-0.5,0.5c-0.1,0.1-0.1,0.1,0,0.2
		C88.8,87.2,88.8,87.2,88.9,87.2z"/>
	<path opacity="0.3" enable-background="new    " d="M86.8,85.7c-0.1,0.1-0.5,0.6-0.5,0.6s-0.1,0.1-0.1,0.1c0,0.1,0,0.1,0.1,0.1
		c0,0,0.5,0.5,0.5,0.6c0.1,0.1,0.1,0.1,0.2,0c0.1-0.1,0.1-0.1,0-0.2l-0.5-0.5L87,86c0.1-0.1,0.1-0.1,0-0.2
		C87,85.7,86.9,85.7,86.8,85.7z"/>
	<path fill="none" stroke="#00A14B" stroke-width="5.225561e-02" stroke-miterlimit="10" d="M128.3,88.2"/>
	<path fill="none" stroke="#00A14B" stroke-width="5.225561e-02" stroke-miterlimit="10" d="M124.9,94.4"/>
	<path fill="#B9C5CF" d="M95.4,84c0.9,0,0.9-2.3,1.6-2.3h8.5c0.9,0,0.9,2.3,1.6,2.3H95.4z"/>
	<g>
		<g>
			<path fill="#475568" d="M105.5,83.1l-0.1-0.2l0.1-0.2v-0.1h-0.1l-0.1,0.2l-0.1-0.2h-0.1v0.1l0.1,0.2l-0.1,0.2v0.1h0.1l0.1-0.2
				L105.5,83.1L105.5,83.1C105.5,83.1,105.5,83.1,105.5,83.1z"/>
		</g>
	</g>
	<path fill="#EAEAE9" d="M85.2,84c0.9,0,0.9-2.3,1.6-2.3h8.5c0.9,0,0.9,2.3,1.6,2.3H85.2z"/>
	<g>
		<g>
			<path fill="#475568" d="M95.3,83.2L95.2,83l0.1-0.2v-0.1h-0.1l-0.1,0.2L95,82.8H95v0.1l0.1,0.2L95,83.2v0.1H95l0.1-0.2L95.3,83.2
				L95.3,83.2C95.3,83.2,95.3,83.2,95.3,83.2z"/>
		</g>
	</g>
	<g opacity="0.3">
		<g>
			<path d="M92.1,85.7c0.3,0,0.6,0.3,0.6,0.6h0.2l-0.3,0.3l-0.3-0.3h0.2c0-0.2-0.2-0.5-0.5-0.5c-0.3,0-0.5,0.2-0.5,0.5
				c0,0.3,0.2,0.5,0.5,0.5c0.1,0,0.2-0.1,0.3-0.1l0.1,0.1c-0.1,0.1-0.2,0.1-0.4,0.1c-0.3,0-0.6-0.3-0.6-0.6
				C91.5,86,91.8,85.7,92.1,85.7z"/>
		</g>
	</g>
	<path fill="none" stroke="#00A14B" stroke-width="7.292474e-02" stroke-miterlimit="10" d="M135.1,114.4"/>
	<circle fill="#70B34A" cx="150.1" cy="82.5" r="0.7"/>
	<circle fill="#DDAA54" cx="152.4" cy="82.5" r="0.7"/>
	<circle fill="#D5655D" cx="154.8" cy="82.5" r="0.7"/>
	<path fill="#A0A09F" d="M148.8,86.4h-1.5c-0.1,0-0.1,0.1-0.1,0.1c0,0.1,0.1,0.1,0.1,0.1h1.5c0.1,0,0.1-0.1,0.1-0.1
		C148.9,86.5,148.9,86.4,148.8,86.4z M148.8,85.9h-1.5c-0.1,0-0.1,0.1-0.1,0.1c0,0.1,0.1,0.1,0.1,0.1h1.5c0.1,0,0.1-0.1,0.1-0.1
		C148.9,86,148.9,85.9,148.8,85.9z M148.8,86.9h-1.5c-0.1,0-0.1,0.1-0.1,0.1c0,0.1,0.1,0.1,0.1,0.1h1.5c0.1,0,0.1-0.1,0.1-0.1
		C148.9,87.1,148.9,86.9,148.8,86.9z"/>
	<g>
		<g>
			<path fill="#A4A4A4" d="M123.7,90.4"/>
		</g>
	</g>
	<path fill="#FFFFFF" d="M145,87.5c0,0.2-0.2,0.3-0.3,0.3l-50-0.1c-0.2,0-0.3-0.2-0.3-0.3v-2c0-0.2,0.2-0.3,0.3-0.3l50,0.1
		c0.2,0,0.3,0.2,0.3,0.3V87.5z"/>
	<path fill="none" stroke="#00A14B" stroke-width="1.810967e-02" stroke-miterlimit="10" d="M44.3,107"/>
	<path fill="none" stroke="#00A14B" stroke-width="1.810967e-02" stroke-miterlimit="10" d="M43.2,109.1"/>
	<g>
		<g>
			<path fill="#A4A4A4" d="M42.8,107.8"/>
		</g>
	</g>
</g>
</svg>
