<svg xmlns="http://www.w3.org/2000/svg" xmlns:xlink="http://www.w3.org/1999/xlink" width="265.783" height="229.792" viewBox="0 -1.117 265.783 229.792" enable-background="new 0 -1.117 265.783 229.792"><path fill="#E6C3DD" d="M240.1 46.189l-.391 1.1 15.412 15.613 1.614-.828s5.292-4.871 5.998-7.164c.706-2.292 1.233-7.487-.745-10.489-1.98-3.002-6.028-6.15-11.522-5.53-5.493.621-10.366 7.298-10.366 7.298"/><path stroke="#414042" stroke-miterlimit="10" d="M255.616 63.195l4.673-4.674c4.491-4.491 4.491-11.77 0-16.261-4.49-4.491-11.769-4.491-16.26 0l-4.674 4.674" fill="none"/><path stroke="#EDD9E7" stroke-linecap="round" stroke-linejoin="round" stroke-miterlimit="10" d="M257.613 44.936c-3.397-3.397-8.905-3.397-12.302 0l-3.537 3.535" fill="none"/><path fill="#D4E9E2" d="M100.617 94.686c-.118 1.21-.621 2.371-1.42 3.277l-.314.307c-.149.143-.293.288-.456.413-.194.151-.403.273-.614.397l-.246.146c-.673.345-1.411.55-2.164.613-.29.042-.585.065-.888.051-1.557-.067-2.451-.379-3.844-1.041-1.253-.598-2.21-2.042-2.567-3.339-.397-1.441-.192-3.015.563-4.304.259-.441.595-.826.961-1.18.829-1.556 2.394-2.705 4.701-2.705 1.109 0 2.034.277 2.798.726 2.886.898 4.046 3.978 3.49 6.639m-41.295 34.162c-7.204 0-7.204-11.172 0-11.172s7.205 11.172 0 11.172m178.878-48.67c-.862.973-1.766 1.945-2.686 2.993-3.221 3.673-8.041 8.237-11.48 11.708-6.189 6.249-11.385 11.012-17.47 17.368-6.773 7.075-13.744 13.86-20.981 20.448-3.012 2.74-3.835 6.558-7.659 8.19-3.611 1.543-8.828 3.155-12.339 4.899-.493.244-.98.406-1.459.508-1.949.575-11.28 4.194-12.662 4.728.705-2.46 4.16-12.73 6.135-15.044 3.369-3.951 2.34-9.334 5.96-13.22.556-.598 1.151-1.018 1.761-1.301 5.576-5.965 11.109-11.991 17.015-17.633 6.199-5.922 12.438-12.071 18.292-18.357 5.553-5.963 10.819-11.893 17.178-17.049.82-.666 1.662-1.316 2.509-1.963.465-.781 1.11-1.456 1.876-1.946.219-.35.464-.694.745-1.037.389-.473.919-.79 1.41-1.153l.057-.034c.327-.496.737-.935 1.233-1.293.466-.847 1.155-1.567 2.066-2.042.311-.385.647-.744 1.022-1.045-19.254-34.362-55.997-57.6-98.188-57.6-22.662 0-43.747 6.714-61.401 18.246.801.283 1.523.733 2.239 1.324.717.592 1.284 1.421 1.711 2.248 1.204 2.334.89 4.822-.874 6.769-1.563 1.725-4.016 2.396-6.255 1.863-1.045-.248-2.087-.895-2.834-1.653-.893-.906-1.186-1.688-1.644-2.86-.245-.628-.283-1.36-.185-2.082-4.498 3.521-8.724 7.374-12.635 11.527l.419.068c4.015.857 7.728 2.48 11.069 4.664.383.16.77.372 1.16.648 4.603 3.264 9.392 5.558 11.595 11.156.992 2.521 3.034 4.599 4.1 7.173 1.099 2.654 1.747 5.302 2.185 8.139.781 5.066 1.804 12.38-.168 17.242-1.021 2.52-2.018 5.361-3.541 7.738 1.843 1.481 3.529 3.105 5.238 4.773 1.245 1.213-.954 4.971.246 5.811.316.152-1.887.773-1.621.981 2.155 1.894 1.214 1.306 1.042 2.816-.383 1.334 5.542 3.617 4.256 4.301-.246.455-.552.861-.928 1.162-1.33 1.061-2.578 2.221-3.91 3.281l-.029.021-.215.385c-.256.5-.611.91-1.005 1.276-.884 1.286-1.917-4.519-3.958-4.519-2.415 0-4.436 5.451-5.232 3.78-.703-.46-1.335-1.056-1.826-1.794.511.765-.704-.793-.683-.772-.467-.467-.941-.924-1.418-1.38-.755-.721-1.486-1.463-2.23-2.195-.736-.724-1.444-1.479-2.111-2.266-7.029 3.806-15.075 6.095-23.159 5.448-7.158-.572-13.97-2.583-19.734-6.654-.099 1.933-.163 3.874-.163 5.831 0 62.133 50.368 112.501 112.5 112.501 62.133 0 112.501-50.368 112.501-112.501 0-11.347-1.709-22.292-4.837-32.621"/><path fill="#ECEFF0" d="M239.898 84.567c-.428-.55-.737-1.19-.87-1.907-.258-1.39-1.123-2.734-1.716-4.623-.534-1.708-.952-3.448-1.497-5.153-.215-.675-.267-1.363-.193-2.035-.813-1.891-1.761-3.721-2.967-5.434-.512-.727-1.005-1.448-1.478-2.173l-103.014 21.883 21.889 102.35.692.841s47.351 4.777 84.265-33.309c1.865-5.156 3.273-10.546 4.925-15.631 3.185-9.796 3.094-19.996 2.703-30.202-.314-8.229-.962-16.542-2.739-24.607"/><rect x="140.541" y="89.611" transform="matrix(.977 -.212 .212 .977 -17.627 34.108)" fill="#F6B39E" width="19.537" height="19.358"/><path fill="#414042" d="M139.421 92.099l3.835 17.986 17.987-3.835-3.836-17.987-17.986 3.836zm2.975 19.313l-4.302-20.172 20.172-4.303 4.303 20.173-20.173 4.302z"/><rect x="149.772" y="85.378" transform="matrix(.839 .544 -.544 .839 78.192 -65.844)" fill="#414042" width="1.119" height="27.59"/><rect x="136.537" y="98.615" transform="matrix(.839 .544 -.544 .839 78.155 -65.828)" fill="#414042" width="27.59" height="1.119"/><rect x="159.665" y="85.525" transform="matrix(.977 -.212 .212 .977 -16.327 38.068)" fill="#F6B39E" width="19.537" height="19.358"/><path fill="#414042" d="M158.545 88.013l3.835 17.986 17.987-3.835-3.836-17.987-17.986 3.836zm2.975 19.313l-4.302-20.172 20.172-4.303 4.303 20.173-20.173 4.302z"/><rect x="168.896" y="81.292" transform="matrix(.839 .544 -.544 .839 79.049 -76.911)" fill="#414042" width="1.119" height="27.59"/><rect x="155.661" y="94.529" transform="matrix(.839 .544 -.544 .839 79.01 -76.89)" fill="#414042" width="27.59" height="1.119"/><path fill="#F4F7F9" d="M240.593 83.814c-.414-.542-.716-1.17-.847-1.873-.25-1.346-1.065-2.659-1.656-4.457l-121.56 25.821 21.889 102.35.693.841s54.684 5.521 92.332-42.566c.12-.363.278-.732.485-1.103 4.14-7.401 6.122-16.167 8.725-24.17 3.185-9.796 3.093-19.995 2.703-30.202-.314-8.242-.977-16.566-2.764-24.641"/><rect x="129.369" y="108.605" transform="matrix(.977 -.212 .212 .977 -21.906 32.172)" fill="#FAD4AE" width="19.537" height="19.358"/><path fill="#414042" d="M128.248 111.092l3.836 17.986 17.987-3.835-3.836-17.987-17.987 3.836zm2.976 19.313l-4.302-20.172 20.172-4.303 4.303 20.173-20.173 4.302z"/><rect x="138.6" y="104.372" transform="matrix(.839 .544 -.544 .839 86.73 -56.704)" fill="#414042" width="1.119" height="27.59"/><rect x="125.364" y="117.608" transform="matrix(.839 .544 -.544 .839 86.69 -56.692)" fill="#414042" width="27.59" height="1.118"/><rect x="148.493" y="104.518" transform="matrix(.977 -.212 .212 .977 -20.606 36.132)" fill="#FAD4AE" width="19.537" height="19.358"/><path fill="#414042" d="M147.373 107.006l3.835 17.986 17.987-3.835-3.836-17.987-17.986 3.836zm2.975 19.313l-4.302-20.172 20.172-4.303 4.303 20.173-20.173 4.302z"/><rect x="157.724" y="100.286" transform="matrix(.839 .544 -.544 .839 87.587 -67.771)" fill="#414042" width="1.119" height="27.59"/><rect x="144.488" y="113.522" transform="matrix(.839 .544 -.544 .839 87.545 -67.755)" fill="#414042" width="27.59" height="1.119"/><path fill="#F7FCFE" d="M243.393 109.468l-.036-1.013c-.113-2.937-.274-5.885-.505-8.829-.353-3.487-.743-5.467-.743-5.467l-.347-1.221-.837-.524-136.43 28.98 21.889 102.349.693.841s60.653 6.133 98.181-50.684c15.65-23.695 18.333-48.853 18.135-64.432"/><path fill="#C5E3EF" d="M242.738 105.894c-.028-.325-.026-.63-.007-.925l-36.624 7.938c-.456.769-1.08 1.424-1.923 1.825-1.329.63-1.916 2.001-2.934 3.03-.85.864-1.813 1.554-2.805 2.215-.278.504-.66.993-1.162 1.457-3.435 3.181-6.578 6.627-9.852 9.972-2.216 2.264-4.651 4.326-6.83 6.626l62.002-13.441c.251-6.235.678-12.457.135-18.697"/><defs><path id="a" d="M206.106 112.907c-.455.769-1.08 1.424-1.923 1.825-1.329.631-1.916 2.001-2.932 3.03-.85.862-1.814 1.554-2.805 2.215-.278.504-.661.994-1.162 1.458-3.436 3.179-6.578 6.626-9.853 9.97-2.216 2.264-4.651 4.326-6.829 6.625l62.001-13.44c.251-6.235.678-12.455.135-18.696-.029-.325-.026-.63-.008-.925l-36.624 7.938z"/></defs><clipPath id="b"><use xlink:href="#a" overflow="visible"/></clipPath><path clip-path="url(#b)" fill="#D5EEF6" d="M248.573 109.802c-.065-.135-.078-.27-.068-.403l-54.394 11.438c-.636.436-1.53.859-2.767 1.219-1.952.565-2.745 1.293-4.205 1.964-1.221.563-2.619 1.077-4.063 1.581-.385.282-.928.579-1.649.89-4.951 2.14-9.44 4.332-14.135 6.512-3.181 1.472-6.699 2.905-9.817 4.386l92.085-19.366c-.021-2.786.223-5.604-.987-8.221"/><path fill="#FAD4AE" d="M106.155 66.371c-3.853 0-3.853-6.703 0-6.703s3.853 6.703 0 6.703m67.295-57.586c-1.797.256-2.111.449-2.111.449l-86.871 19.626 11.454 50.694 127.543-28.65.426-.855c0 .001-19.643-29.115-50.441-41.264"/><defs><path id="c" d="M106.154 59.668c3.853 0 3.853 6.703 0 6.703-3.852 0-3.852-6.703 0-6.703m65.185-50.434l-86.871 19.626 11.454 50.694 127.543-28.649.426-.855s-19.643-29.116-50.441-41.266c-1.797.257-2.111.45-2.111.45"/></defs><clipPath id="d"><use xlink:href="#c" overflow="visible"/></clipPath><polygon clip-path="url(#d)" fill="#FDC689" points="223.891,7.036 79.747,38.98 92.45,89.085 235.404,58.035"/><line clip-path="url(#d)" stroke="#FDC689" stroke-miterlimit="10" x1="223.891" y1="2.567" x2="79.747" y2="34.511" fill="none"/><path fill="#C5E3EF" d="M195.027 205.529c4.351-1.495 7.738-6.927 11.196-9.88 2.611-2.231 5.15-4.532 7.64-6.887 1.472-1.825 2.943-3.659 4.536-5.398.154-.168.312-.323.471-.466l.047-.142c.326-1.163.905-2.041 1.628-2.677l-8.116-37.444-85.13 18.451 12.588 58.075 51.011-11.055c.454-.446 1.034-.804 1.744-1.053.595-.646 1.382-1.179 2.385-1.524"/><path fill="#C5E3EF" d="M154.162 143.326c1.79-4.808 4.255-9.157 5.726-14.058.08-.269.179-.517.284-.756l-1.221-5.637-19.094 4.138 4.056 18.718 10.191-2.21.058-.195"/><path fill="#8F8887" d="M85.857 216.247l.449-1.003 12.806-62.801.431-2.148v-1.752l-.419-.855-.617-.633-1.147-.511-1.497-.299-75.877-15.329-.379.609c.001 0 7.548 59.33 66.25 84.722"/><polygon fill="#BEBBB9" points="80.963,140.243 90.751,142.208 76.963,210.902 76.128,211.474 70.714,208.321 68.138,206.457 67.928,205.19"/><path fill="#F6B39E" d="M37.809 176.404v-1.03l34.147 6.685.401.856-4.628 22.554-.609.21c0-.001-14.562-8.552-29.311-29.275"/><path fill="#F6B39E" d="M83.177 184.311l-1.072.977-5.32 25.737.81 1.008s7.709 3.987 7.975 3.948c.265-.038.737-.457.737-.457l6.039-28.629-.774-.898-8.395-1.686z"/><polygon fill="#E6E7E8" points="41.354,180.308 41.191,180.821 46.358,187.059 47.034,187.175 50.571,187.873 51.874,182.31"/><path stroke="#414042" stroke-miterlimit="10" d="M48.963 35.54c3.683-3.878 7.641-7.494 11.842-10.815" fill="none"/><path stroke="#38383F" stroke-miterlimit="10" d="M168.153 7.036c25.314 9.04 46.905 27 60.278 50.779" fill="none"/><path stroke="#414042" stroke-miterlimit="10" d="M72.637 74.472c0 17.586-14.256 31.842-31.842 31.842s-31.841-14.257-31.841-31.842c0-17.586 14.256-31.842 31.842-31.842s31.841 14.256 31.841 31.842zm34.291-8.225c1.678-.38 2.731-2.047 2.352-3.725-.379-1.679-2.047-2.731-3.723-2.353-1.68.38-2.733 2.047-2.353 3.725.378 1.681 2.046 2.733 3.724 2.353zm24.273-47.945l2.028 8.978m46.51-15.36l1.013 4.624m-65.392 5.337l2.025 8.98m45.498-19.717l2.03 8.976m-65.394 5.339l3.817 16.9m43.705-27.636l3.817 16.9m21.917-22.838l-88.306 20.075 11.454 50.694 128.112-28.879m0 0c1.491 2.239 2.906 4.534 4.237 6.883" fill="none"/><path fill="#FDC689" d="M64.912 123.395c0 3.138-2.544 5.682-5.682 5.682-3.138 0-5.682-2.544-5.682-5.682 0-3.138 2.544-5.681 5.682-5.681 3.138 0 5.682 2.543 5.682 5.681"/><circle stroke="#414042" stroke-miterlimit="10" cx="59.23" cy="123.395" r="5.682" fill="none"/><path fill="#FDC689" d="M100.987 93.744c0 3.548-2.876 6.425-6.425 6.425-3.548 0-6.424-2.877-6.424-6.425s2.876-6.425 6.424-6.425c3.55 0 6.425 2.877 6.425 6.425"/><circle stroke="#414042" stroke-miterlimit="10" cx="94.563" cy="93.744" r="6.424" fill="none"/><path fill="#FAD4AE" d="M73.809 24.726c0 3.548-2.876 6.425-6.425 6.425-3.548 0-6.424-2.877-6.424-6.425s2.876-6.425 6.424-6.425c3.55 0 6.425 2.877 6.425 6.425"/><circle stroke="#414042" stroke-miterlimit="10" cx="67.385" cy="24.726" r="6.424" fill="none"/><path fill="#FAD4AE" d="M67.385 21.653c1.697 0 3.072 1.376 3.072 3.072"/><path stroke="#FBEBD4" stroke-linecap="round" stroke-linejoin="round" stroke-miterlimit="10" d="M67.385 21.653c1.697 0 3.072 1.376 3.072 3.072" fill="none"/><path stroke="#FAD4AE" stroke-linecap="round" stroke-linejoin="round" stroke-miterlimit="10" d="M58.872 120.734c1.697 0 3.072 1.375 3.072 3.072m32.866-33.145c1.697 0 3.072 1.376 3.072 3.072" fill="none"/><path fill="#FAD4AE" d="M97.751 106.896c0 1.298-1.052 2.35-2.35 2.35-1.297 0-2.349-1.052-2.349-2.35s1.052-2.35 2.349-2.35c1.298-.001 2.35 1.052 2.35 2.35"/><circle stroke="#414042" stroke-miterlimit="10" cx="95.401" cy="106.896" r="2.35" fill="none"/><path fill="#FAD4AE" d="M35.628 122.513c0 1.387-1.125 2.514-2.514 2.514-1.389 0-2.514-1.126-2.514-2.514 0-1.387 1.125-2.514 2.514-2.514 1.389.001 2.514 1.127 2.514 2.514"/><circle stroke="#414042" stroke-miterlimit="10" cx="33.115" cy="122.513" r="2.514" fill="none"/><path stroke="#414042" stroke-miterlimit="10" d="M85.857 141.226l-13.617 67.844m4.544 2.723l5.55-27.651 10.012 2.01-6.039 30.096m-46.143-36.403l11.967 2.401-1.204 6.006-4.713-.945m-9.455-12.312l35.787 7.182-4.818 24.004m-48.22-75.264l60.874 12.219m9.787 1.966l7.191 1.442c1.558.315 2.568 1.829 2.255 3.388l-13.31 66.314m121.882-22.164l-80.906-33.303m12.429 58.276l72.641-76.421m-22.554 65.739l-50.087 10.682-12.429-58.276 85.07-18.145 8.038 37.685m21.819-55.476l-61.731 13.167m25.768-25.446l36.588-7.803m-88.548 38.836l-10.254 2.186-4.07-19.081 19.08-4.07 1.188 5.57m-29.143-28.019l-3.24-15.191 93.111-19.858m-101.905 53.609l-3.241-15.191 84.817-18.09m-74.783 139.841l-22.068-103.191 76.523-16.321m41.589-8.87l19.154-4.085" fill="none"/><path stroke="#8F8887" stroke-miterlimit="10" d="M88.371 141.226l-13.871 69.201m8.657-69.201l-13.289 66.36" fill="none"/><rect x="122.665" y="128.715" transform="matrix(.977 -.212 .212 .977 -26.32 31.208)" fill="#D5EEF6" width="19.537" height="19.358"/><path stroke="#414042" stroke-miterlimit="10" d="M156.614 137.568l-16.757-10.865m4.07 19.079l15.011-23.149m-14.907 23.15l-23.149-15.011m4.068 19.08l15.011-23.149m4.07 19.08l-19.081 4.069-4.069-19.08 19.08-4.07 4.07 19.081z" fill="none"/><path fill="#FBEBD4" d="M161.924 124.959l-9.29 24.859 25.794-9.652 1.163-1.551-.13-2.702s-.315-1.657-.757-1.596c-.442.06-2.28-.559-2.514-.512-.234.047-1.281-.086-1.281-.086l-.6-1.448s-.613-2.392-.677-2.483c-.065-.092-1.156-1.093-1.28-1.162-.124-.07-1.746-.724-1.887-.496-.141.228-1.281.221-1.281.221l-.315-.505-.187-2.493s-1.027-1.631-1.154-1.738c-.127-.108-1.971-.941-2.194-.752-.223.189-1.83.121-1.83.121l-1.58 1.975z"/><path fill="#8F8887" d="M235.872 49.078l-1.094.444-.279.884.279 1.039s16.093 16.226 16.162 16.293c.067.066 2.181.343 2.181.343s.602-.702.629-.785c.028-.084-.21-1.592-.21-1.592l-.814-.984-15.898-15.337-.956-.305z"/><path fill="#BEBBB9" d="M238.385 46.588l-1.472.508-.285 1.398.602.924s16.521 16.279 16.624 16.279c.103 0 1.849.117 1.849.117s.582-1.395.582-1.489c0-.094-.675-.839-.675-.839l-16.852-16.898h-.373z"/><path fill="#FDC689" d="M179.378 139.432l71.364-71.364-5.165-5.167-71.387 71.387c3.284.098 5.015 2.555 5.188 5.144"/><path fill="#FAD4AE" d="M240.037 57.316l-71.574 71.574.002.053.079-.004c3.283 0 5.065 2.32 5.357 4.845l71.301-71.3-5.165-5.168z"/><path fill="#FDC689" d="M163.064 123.386c3.274 0 5.055 2.308 5.352 4.826l71.292-71.292-5.165-5.167-71.641 71.641.162-.008"/><path stroke="#414042" stroke-miterlimit="10" d="M172.473 135.433l73.081-73.082m-78.535 67.627l73.081-73.08m15.582 8.668c-.637.637-1.669.637-2.305 0l-16.327-16.328c-.636-.635-.636-1.667 0-2.302.637-.638 1.668-.638 2.305-.001l16.328 16.328c.635.635.635 1.667-.001 2.303zm-2.304 2.306c-.636.635-1.668.635-2.305 0l-16.327-16.329c-.637-.635-.637-1.667 0-2.302.636-.637 1.668-.637 2.304-.002l16.328 16.328c.636.636.636 1.668 0 2.305zm-80.905 67.561c1.506-1.507 3.948-1.507 5.454-.001 1.506 1.505 1.505 3.947-.001 5.453m-10.907-10.907c1.506-1.505 3.949-1.505 5.455 0 1.505 1.506 1.505 3.948-.001 5.455m-10.907-10.908c1.506-1.506 3.948-1.507 5.454 0 1.506 1.506 1.505 3.948-.001 5.453" fill="none"/><path fill="#BEBBB9" d="M151.996 150.654l13.372-5.19v-.955s-1.571-4.398-4.225-5.83c-2.653-1.431-4.015-1.501-4.015-1.501l-5.132 13.476z"/><path stroke="#414042" stroke-miterlimit="10" d="M165.843 145.464c-.459-2.195-1.469-4.184-3.054-5.769-1.596-1.596-3.601-2.608-5.812-3.063m77.669-85.187l-72.945 72.944-10.27 26.597.034.032 26.596-10.27 72.946-72.944" fill="none"/><path fill="#ECEFF0" d="M54.883 102.213l13.58 13.58c4.112 4.113 10.78 4.111 14.893-.001 4.113-4.112 4.113-10.779.001-14.894l-13.58-13.578"/><path stroke="#414042" stroke-miterlimit="10" d="M54.883 102.213l13.58 13.58c4.112 4.113 10.78 4.111 14.893-.001 4.113-4.112 4.113-10.779.001-14.894l-13.58-13.578" fill="none"/><path fill="#ECEFF0" d="M80.458 74.471c0 21.905-17.758 39.663-39.663 39.663-21.905 0-39.662-17.758-39.662-39.663 0-21.905 17.757-39.663 39.662-39.663 21.905.001 39.663 17.759 39.663 39.663"/><circle stroke="#414042" stroke-miterlimit="10" cx="40.795" cy="74.471" r="39.662" fill="none"/><path fill="#FAD4AE" d="M72.637 74.471c0 17.586-14.256 31.842-31.842 31.842s-31.842-14.256-31.842-31.842 14.256-31.842 31.842-31.842 31.842 14.257 31.842 31.842"/><circle stroke="#414042" stroke-miterlimit="10" cx="40.795" cy="74.471" r="31.842" fill="none"/><path fill="#FDC689" d="M59.09 78.382c-2.159 0-3.91-1.752-3.91-3.91 0-7.933-6.454-14.385-14.385-14.385-2.159 0-3.91-1.751-3.91-3.91 0-2.159 1.751-3.91 3.91-3.91 12.244 0 22.205 9.961 22.205 22.205 0 2.158-1.75 3.91-3.91 3.91"/><line stroke="#414042" stroke-miterlimit="10" x1="214.686" y1="110.894" x2="218.787" y2="129.813" fill="none"/><line stroke="#3E3F4D" stroke-miterlimit="10" x1="113.416" y1="75.589" x2="203.634" y2="55.199" fill="none"/><path stroke="#FBEBD4" stroke-linecap="round" stroke-linejoin="round" stroke-miterlimit="10" d="M32.974 121.795c.502 0 .908.407.908.908" fill="none"/><path fill="#FDC689" d="M32.934 56.532c-.371 1.014-1.493 1.536-2.507 1.165-1.013-.37-1.537-1.491-1.165-2.507.37-1.015 1.494-1.535 2.506-1.165 1.015.371 1.537 1.493 1.166 2.507"/><path fill="#FDC689" d="M28.203 60.057c-.371 1.014-1.494 1.536-2.507 1.166-1.015-.371-1.537-1.494-1.166-2.508s1.494-1.536 2.507-1.165c1.014.37 1.537 1.493 1.166 2.507"/><path fill="#FDC689" d="M34.28 62.278c-.371 1.014-1.494 1.535-2.507 1.165-1.014-.37-1.536-1.493-1.166-2.506.371-1.015 1.494-1.537 2.508-1.166 1.013.37 1.536 1.492 1.165 2.507"/><polyline stroke="#414042" stroke-miterlimit="10" points="76.784,211.792 90.752,142.208 80.963,140.243 67.728,206.181" fill="none"/><path stroke="#38383F" stroke-miterlimit="10" d="M69.46 18.522c17.567-11.375 38.51-17.977 60.994-17.977 14.971 0 29.258 2.927 42.32 8.24" fill="none"/><path stroke="#414042" stroke-miterlimit="10" d="M238.182 80.818c3.026 10.173 4.652 20.95 4.652 32.105 0 62.065-50.314 112.379-112.379 112.379-62.065 0-112.379-50.315-112.379-112.379 0-1.918.048-3.825.143-5.72" fill="none"/><line stroke="#FDC689" stroke-miterlimit="10" x1="172.473" y1="129.978" x2="242.9" y2="59.552" fill="none"/><path stroke="#414042" stroke-miterlimit="10" d="M251.073 67.872l-16.327-16.329m-62.273 83.89c1.506-1.507 3.948-1.507 5.454-.001 1.506 1.505 1.505 3.947-.001 5.453m-10.907-10.907c1.506-1.505 3.949-1.505 5.455 0 1.505 1.506 1.505 3.948-.001 5.455m-10.907-10.908c1.506-1.506 3.948-1.507 5.454 0 1.506 1.506 1.505 3.948-.001 5.453" fill="none"/></svg>