<?xml version="1.0" encoding="UTF-8" standalone="no"?>
<!-- Created with Inkscape (http://www.inkscape.org/) -->

<svg
   xmlns:dc="http://purl.org/dc/elements/1.1/"
   xmlns:cc="http://creativecommons.org/ns#"
   xmlns:rdf="http://www.w3.org/1999/02/22-rdf-syntax-ns#"
   xmlns:svg="http://www.w3.org/2000/svg"
   xmlns="http://www.w3.org/2000/svg"
   xmlns:sodipodi="http://sodipodi.sourceforge.net/DTD/sodipodi-0.dtd"
   xmlns:inkscape="http://www.inkscape.org/namespaces/inkscape"
   width="112.16069"
   height="102.02235"
   id="svg2"
   version="1.1"
   inkscape:version="0.91 r13725"
   sodipodi:docname="w3.svg">
  <defs
     id="defs4" />
  <sodipodi:namedview
     id="base"
     pagecolor="#ffffff"
     bordercolor="#666666"
     borderopacity="1.0"
     inkscape:pageopacity="0.0"
     inkscape:pageshadow="2"
     inkscape:zoom="3.959798"
     inkscape:cx="50.163962"
     inkscape:cy="67.926742"
     inkscape:document-units="in"
     inkscape:current-layer="layer1"
     showgrid="false"
     showguides="true"
     inkscape:guide-bbox="true"
     inkscape:window-width="1366"
     inkscape:window-height="744"
     inkscape:window-x="0"
     inkscape:window-y="24"
     inkscape:window-maximized="1"
     units="in"
     fit-margin-top="5"
     fit-margin-left="5"
     fit-margin-right="5"
     fit-margin-bottom="5" />
  <metadata
     id="metadata7">
    <rdf:RDF>
      <cc:Work
         rdf:about="">
        <dc:format>image/svg+xml</dc:format>
        <dc:type
           rdf:resource="http://purl.org/dc/dcmitype/StillImage" />
        <dc:title></dc:title>
      </cc:Work>
    </rdf:RDF>
  </metadata>
  <g
     inkscape:label="Layer 1"
     inkscape:groupmode="layer"
     id="layer1"
     transform="translate(-176.01706,-212.8522)">
    <g
       id="g3351"
       transform="translate(-13.431655,-0.02300207)">
      <path
         sodipodi:nodetypes="cssccsscssccsscscc"
         inkscape:connector-curvature="0"
         id="path3000"
         d="m 266.06247,257.8414 2.52988,0 c 4.24143,-0.0734 7.79274,-3.53027 7.79274,-7.78954 0,-4.30436 -3.48943,-7.79378 -7.79472,-7.79378 -4.30448,0 -7.7939,3.14408 -7.7939,7.44872 l -7.38933,0 c 0,-8.38322 6.7999,-15.17853 15.18323,-15.17853 8.38416,0 15.17841,6.79531 15.17841,15.17853 0,4.64102 -2.08325,8.79424 -5.36488,11.57792 3.58817,2.87796 5.883,7.29979 5.883,12.25821 0,8.67101 -7.025,15.70155 -15.69653,15.70155 -8.67071,0 -15.70158,-7.03054 -15.70158,-15.70155 l 7.04414,0 c 0,4.77883 3.8789,8.65212 8.65744,8.65212 4.77936,0 8.65265,-3.87329 8.65265,-8.65212 0,-4.77907 -3.87224,-8.65236 -8.65067,-8.65236 l -2.52988,0 z"
         style="fill:#457738;fill-opacity:1;stroke:none" />
      <path
         sodipodi:nodetypes="csccscsccscccc"
         inkscape:connector-curvature="0"
         id="path3772"
         d="m 230.26215,249.29407 0,2.85229 c -0.0136,4.57915 -3.72539,8.28567 -8.30744,8.28567 -4.58187,0 -8.30061,-3.70652 -8.31215,-8.28567 l -6.87134,0 c 0.013,8.37378 6.80737,15.15649 15.18349,15.15649 4.73245,0 8.95667,-2.16581 11.74025,-5.55943 2.78462,3.39572 7.01677,5.55943 11.75059,5.55943 8.37627,0 15.16633,-6.78271 15.17786,-15.15649 l -6.87081,0 c -0.0142,4.57915 -3.7253,8.28567 -8.30705,8.28567 -4.58191,0 -8.30103,-3.70652 -8.31256,-8.28567 l 0,-2.85229 z"
         style="fill:#457738;fill-opacity:1;stroke:none" />
    </g>
    <path
       style="fill:#457738;fill-opacity:1;stroke:none"
       d="m 181.01706,217.8522 78.43436,0 c 13.10165,0 23.72633,10.61681 23.72633,23.71846 l 0,44.57693 c 0,13.10156 -10.62468,23.72696 -23.72633,23.72696 l -54.12782,0 c -13.10166,0 -23.71846,-10.6254 -23.71846,-23.72696 l 0,-19.67121 9.19838,0 0,19.67121 c 0,8.02159 6.49839,14.52802 14.52008,14.52802 l 54.12782,0 c 8.02168,0 14.52811,-6.50643 14.52811,-14.52802 l 0,-44.57693 c 0,-8.02168 -6.50643,-14.52061 -14.52811,-14.52061 l -78.43436,0 z"
       id="path3801"
       inkscape:connector-curvature="0"
       sodipodi:nodetypes="cccsssccssscccscc" />
    <flowRoot
       xml:space="preserve"
       id="flowRoot3825"
       style="font-style:normal;font-weight:normal;font-size:40px;line-height:125%;font-family:Sans;letter-spacing:0px;word-spacing:0px;fill:#000000;fill-opacity:1;stroke:none"
       transform="matrix(0.23586051,0,0,0.23586051,245.7902,201.38652)"><flowRegion
         id="flowRegion3827"><rect
           id="rect3829"
           width="929.34033"
           height="381.83768"
           x="371.73615"
           y="211.91527" /></flowRegion><flowPara
         id="flowPara3831" /></flowRoot>  </g>
</svg>
